<svg xmlns="http://www.w3.org/2000/svg" viewBox="0 0 220 160" width="220" height="160">
  <rect width="220" height="160" fill="#d4bc8c"/>
  <rect x="8" y="8" width="204" height="144" fill="none" stroke="#7a5530" stroke-width="1"/>
  <g opacity="0.6">
    <rect x="30" y="91" width="9" height="2" fill="#3a2614" opacity="0.04"/>
    <rect x="163" y="70" width="11" height="2" fill="#3a2614" opacity="0.08"/>
    <rect x="91" y="125" width="21" height="2" fill="#3a2614" opacity="0.03"/>
    <rect x="186" y="34" width="10" height="2" fill="#3a2614" opacity="0.08"/>
    <rect x="122" y="61" width="11" height="2" fill="#3a2614" opacity="0.05"/>
    <rect x="41" y="116" width="12" height="2" fill="#3a2614" opacity="0.12"/>
    <rect x="135" y="79" width="19" height="1" fill="#3a2614" opacity="0.05"/>
    <rect x="135" y="104" width="4" height="2" fill="#3a2614" opacity="0.04"/>
    <rect x="123" y="33" width="4" height="1" fill="#3a2614" opacity="0.05"/>
    <rect x="109" y="38" width="19" height="1" fill="#3a2614" opacity="0.09"/>
    <rect x="82" y="74" width="4" height="2" fill="#3a2614" opacity="0.12"/>
    <rect x="47" y="81" width="13" height="2" fill="#3a2614" opacity="0.10"/>
    <rect x="89" y="107" width="21" height="2" fill="#3a2614" opacity="0.07"/>
    <rect x="168" y="69" width="8" height="2" fill="#3a2614" opacity="0.12"/>
    <rect x="154" y="38" width="13" height="1" fill="#3a2614" opacity="0.13"/>
    <rect x="156" y="118" width="12" height="1" fill="#3a2614" opacity="0.10"/>
    <rect x="65" y="78" width="6" height="1" fill="#3a2614" opacity="0.12"/>
    <rect x="150" y="126" width="15" height="2" fill="#3a2614" opacity="0.13"/>
    <rect x="169" y="60" width="12" height="1" fill="#3a2614" opacity="0.13"/>
    <rect x="166" y="82" width="13" height="2" fill="#3a2614" opacity="0.14"/>
    <rect x="175" y="72" width="19" height="1" fill="#3a2614" opacity="0.06"/>
    <rect x="183" y="128" width="5" height="2" fill="#3a2614" opacity="0.13"/>
    <rect x="31" y="121" width="6" height="1" fill="#3a2614" opacity="0.04"/>
    <rect x="189" y="113" width="10" height="2" fill="#3a2614" opacity="0.06"/>
    <rect x="113" y="54" width="14" height="1" fill="#3a2614" opacity="0.08"/>
    <rect x="163" y="80" width="12" height="1" fill="#3a2614" opacity="0.13"/>
    <rect x="125" y="54" width="18" height="1" fill="#3a2614" opacity="0.05"/>
    <rect x="50" y="49" width="20" height="1" fill="#3a2614" opacity="0.11"/>
    <rect x="128" y="114" width="8" height="2" fill="#3a2614" opacity="0.13"/>
    <rect x="40" y="44" width="2" height="2" fill="#3a2614" opacity="0.09"/>
    <rect x="126" y="30" width="18" height="1" fill="#3a2614" opacity="0.12"/>
    <rect x="122" y="59" width="12" height="1" fill="#3a2614" opacity="0.11"/>
    <rect x="40" y="79" width="7" height="2" fill="#3a2614" opacity="0.04"/>
    <rect x="119" y="106" width="4" height="2" fill="#3a2614" opacity="0.06"/>
    <rect x="39" y="111" width="13" height="1" fill="#3a2614" opacity="0.08"/>
  </g>
  <g transform="translate(110, 80)" text-anchor="middle" font-family="Helvetica, Arial, sans-serif">
    <text font-size="10" letter-spacing="3" fill="#a07e48" y="-4">ALT 1</text>
    <text font-size="14" font-weight="700" fill="#3a2614" y="14">01.1</text>
  </g>
</svg>
