<svg xmlns="http://www.w3.org/2000/svg" viewBox="0 0 480 600" width="480" height="600" aria-label="REGISTRY ROOM placeholder">
  <rect width="480" height="600" fill="#bfb7a8"/>
  <rect x="16" y="16" width="448" height="568" fill="none" stroke="#2d2a24" stroke-width="2"/>
  <g opacity="0.7">
    <rect x="58" y="191" width="12" height="2" fill="#1c1a18" opacity="0.04"/>
    <rect x="348" y="99" width="7" height="1" fill="#1c1a18" opacity="0.12"/>
    <rect x="151" y="234" width="14" height="2" fill="#1c1a18" opacity="0.09"/>
    <rect x="297" y="281" width="21" height="1" fill="#1c1a18" opacity="0.14"/>
    <rect x="331" y="483" width="19" height="1" fill="#1c1a18" opacity="0.05"/>
    <rect x="111" y="34" width="12" height="2" fill="#1c1a18" opacity="0.05"/>
    <rect x="341" y="400" width="21" height="2" fill="#1c1a18" opacity="0.11"/>
    <rect x="423" y="463" width="11" height="2" fill="#1c1a18" opacity="0.04"/>
    <rect x="382" y="486" width="7" height="1" fill="#1c1a18" opacity="0.09"/>
    <rect x="79" y="345" width="16" height="1" fill="#1c1a18" opacity="0.13"/>
    <rect x="87" y="441" width="17" height="1" fill="#1c1a18" opacity="0.09"/>
    <rect x="281" y="80" width="10" height="1" fill="#1c1a18" opacity="0.12"/>
    <rect x="431" y="255" width="12" height="2" fill="#1c1a18" opacity="0.03"/>
    <rect x="131" y="246" width="19" height="2" fill="#1c1a18" opacity="0.11"/>
    <rect x="206" y="301" width="14" height="2" fill="#1c1a18" opacity="0.12"/>
    <rect x="411" y="145" width="7" height="2" fill="#1c1a18" opacity="0.03"/>
    <rect x="173" y="507" width="3" height="2" fill="#1c1a18" opacity="0.09"/>
    <rect x="49" y="66" width="2" height="2" fill="#1c1a18" opacity="0.04"/>
    <rect x="273" y="433" width="11" height="2" fill="#1c1a18" opacity="0.14"/>
    <rect x="367" y="483" width="17" height="1" fill="#1c1a18" opacity="0.11"/>
    <rect x="124" y="499" width="5" height="1" fill="#1c1a18" opacity="0.07"/>
    <rect x="432" y="569" width="15" height="2" fill="#1c1a18" opacity="0.04"/>
    <rect x="352" y="401" width="11" height="1" fill="#1c1a18" opacity="0.04"/>
    <rect x="42" y="297" width="20" height="1" fill="#1c1a18" opacity="0.07"/>
    <rect x="59" y="398" width="15" height="1" fill="#1c1a18" opacity="0.08"/>
    <rect x="212" y="138" width="2" height="1" fill="#1c1a18" opacity="0.06"/>
    <rect x="254" y="389" width="3" height="1" fill="#1c1a18" opacity="0.06"/>
    <rect x="41" y="184" width="8" height="1" fill="#1c1a18" opacity="0.12"/>
    <rect x="412" y="345" width="13" height="2" fill="#1c1a18" opacity="0.13"/>
    <rect x="255" y="532" width="17" height="2" fill="#1c1a18" opacity="0.10"/>
    <rect x="385" y="537" width="16" height="1" fill="#1c1a18" opacity="0.08"/>
    <rect x="90" y="134" width="8" height="1" fill="#1c1a18" opacity="0.07"/>
    <rect x="119" y="418" width="15" height="1" fill="#1c1a18" opacity="0.09"/>
    <rect x="441" y="569" width="5" height="1" fill="#1c1a18" opacity="0.10"/>
    <rect x="303" y="294" width="16" height="2" fill="#1c1a18" opacity="0.14"/>
    <rect x="335" y="371" width="19" height="2" fill="#1c1a18" opacity="0.06"/>
    <rect x="379" y="336" width="21" height="2" fill="#1c1a18" opacity="0.04"/>
    <rect x="112" y="563" width="21" height="2" fill="#1c1a18" opacity="0.13"/>
    <rect x="197" y="100" width="13" height="2" fill="#1c1a18" opacity="0.13"/>
    <rect x="232" y="463" width="12" height="2" fill="#1c1a18" opacity="0.08"/>
    <rect x="301" y="100" width="5" height="1" fill="#1c1a18" opacity="0.06"/>
    <rect x="83" y="115" width="17" height="1" fill="#1c1a18" opacity="0.14"/>
    <rect x="48" y="56" width="8" height="1" fill="#1c1a18" opacity="0.13"/>
    <rect x="160" y="89" width="2" height="1" fill="#1c1a18" opacity="0.13"/>
    <rect x="398" y="169" width="14" height="1" fill="#1c1a18" opacity="0.06"/>
    <rect x="330" y="59" width="2" height="1" fill="#1c1a18" opacity="0.05"/>
    <rect x="133" y="45" width="11" height="1" fill="#1c1a18" opacity="0.07"/>
    <rect x="409" y="288" width="14" height="2" fill="#1c1a18" opacity="0.06"/>
    <rect x="428" y="317" width="4" height="2" fill="#1c1a18" opacity="0.14"/>
    <rect x="232" y="95" width="4" height="1" fill="#1c1a18" opacity="0.11"/>
    <rect x="345" y="174" width="19" height="1" fill="#1c1a18" opacity="0.03"/>
    <rect x="278" y="332" width="20" height="1" fill="#1c1a18" opacity="0.06"/>
    <rect x="153" y="159" width="11" height="2" fill="#1c1a18" opacity="0.12"/>
    <rect x="97" y="44" width="12" height="1" fill="#1c1a18" opacity="0.09"/>
    <rect x="318" y="391" width="21" height="2" fill="#1c1a18" opacity="0.10"/>
    <rect x="372" y="534" width="3" height="1" fill="#1c1a18" opacity="0.11"/>
    <rect x="435" y="251" width="4" height="2" fill="#1c1a18" opacity="0.02"/>
    <rect x="200" y="102" width="10" height="1" fill="#1c1a18" opacity="0.06"/>
    <rect x="387" y="310" width="5" height="2" fill="#1c1a18" opacity="0.08"/>
    <rect x="157" y="90" width="16" height="1" fill="#1c1a18" opacity="0.14"/>
    <rect x="182" y="515" width="7" height="1" fill="#1c1a18" opacity="0.09"/>
    <rect x="86" y="102" width="13" height="2" fill="#1c1a18" opacity="0.13"/>
    <rect x="233" y="344" width="12" height="2" fill="#1c1a18" opacity="0.08"/>
    <rect x="173" y="252" width="8" height="2" fill="#1c1a18" opacity="0.05"/>
    <rect x="276" y="263" width="9" height="1" fill="#1c1a18" opacity="0.14"/>
    <rect x="261" y="272" width="10" height="1" fill="#1c1a18" opacity="0.11"/>
    <rect x="340" y="108" width="6" height="2" fill="#1c1a18" opacity="0.03"/>
    <rect x="129" y="256" width="10" height="2" fill="#1c1a18" opacity="0.12"/>
    <rect x="289" y="286" width="6" height="1" fill="#1c1a18" opacity="0.05"/>
    <rect x="432" y="411" width="6" height="1" fill="#1c1a18" opacity="0.04"/>
    <rect x="130" y="87" width="17" height="2" fill="#1c1a18" opacity="0.03"/>
    <rect x="405" y="214" width="11" height="2" fill="#1c1a18" opacity="0.11"/>
    <rect x="110" y="567" width="18" height="2" fill="#1c1a18" opacity="0.09"/>
    <rect x="319" y="444" width="15" height="2" fill="#1c1a18" opacity="0.04"/>
    <rect x="209" y="368" width="4" height="2" fill="#1c1a18" opacity="0.12"/>
    <rect x="243" y="318" width="5" height="2" fill="#1c1a18" opacity="0.03"/>
    <rect x="326" y="489" width="3" height="2" fill="#1c1a18" opacity="0.09"/>
    <rect x="156" y="397" width="14" height="1" fill="#1c1a18" opacity="0.11"/>
    <rect x="306" y="568" width="11" height="2" fill="#1c1a18" opacity="0.11"/>
    <rect x="325" y="410" width="13" height="2" fill="#1c1a18" opacity="0.12"/>
    <rect x="383" y="369" width="12" height="1" fill="#1c1a18" opacity="0.08"/>
    <rect x="284" y="231" width="21" height="1" fill="#1c1a18" opacity="0.05"/>
    <rect x="240" y="345" width="14" height="2" fill="#1c1a18" opacity="0.04"/>
    <rect x="226" y="555" width="12" height="2" fill="#1c1a18" opacity="0.11"/>
    <rect x="107" y="346" width="3" height="1" fill="#1c1a18" opacity="0.14"/>
    <rect x="420" y="461" width="21" height="2" fill="#1c1a18" opacity="0.13"/>
    <rect x="41" y="261" width="20" height="2" fill="#1c1a18" opacity="0.11"/>
    <rect x="248" y="205" width="11" height="2" fill="#1c1a18" opacity="0.14"/>
    <rect x="399" y="93" width="19" height="2" fill="#1c1a18" opacity="0.06"/>
    <rect x="83" y="519" width="20" height="1" fill="#1c1a18" opacity="0.04"/>
    <rect x="263" y="534" width="20" height="2" fill="#1c1a18" opacity="0.06"/>
    <rect x="240" y="123" width="3" height="2" fill="#1c1a18" opacity="0.14"/>
    <rect x="243" y="143" width="7" height="2" fill="#1c1a18" opacity="0.02"/>
    <rect x="44" y="271" width="14" height="2" fill="#1c1a18" opacity="0.12"/>
    <rect x="329" y="422" width="16" height="2" fill="#1c1a18" opacity="0.08"/>
    <rect x="65" y="40" width="10" height="2" fill="#1c1a18" opacity="0.14"/>
    <rect x="129" y="54" width="19" height="2" fill="#1c1a18" opacity="0.06"/>
    <rect x="282" y="156" width="18" height="2" fill="#1c1a18" opacity="0.08"/>
    <rect x="330" y="229" width="13" height="2" fill="#1c1a18" opacity="0.06"/>
    <rect x="31" y="44" width="8" height="1" fill="#1c1a18" opacity="0.04"/>
  </g>
  <g text-anchor="middle" font-family="Helvetica, Arial, sans-serif">
    <text font-size="11" letter-spacing="5" fill="#7e7568" x="240" y="256">ARTIFACT 02</text>
    <g transform="translate(240, 292)">
      <text font-size="26" font-weight="800" fill="#1c1a18" letter-spacing="-0.5" x="0" y="0">REGISTRY ROOM</text>
    </g>
    <text font-size="11" letter-spacing="3" fill="#7e7568" x="240" y="346">Ellis Island · c.1905</text>
  </g>
  <text x="240" y="570" text-anchor="middle" font-family="Helvetica, Arial, sans-serif" font-size="9" letter-spacing="4" fill="#2d2a24" opacity="0.6">PLACEHOLDER</text>
</svg>
