<svg xmlns="http://www.w3.org/2000/svg" viewBox="0 0 960 660" width="960" height="660" aria-label="GUGGENHEIM RECEPTION placeholder">
  <rect width="960" height="660" fill="#d6d2c6"/>
  <rect x="20" y="20" width="920" height="620" fill="none" stroke="#65615a" stroke-width="2"/>
  <g opacity="0.7">
    <rect x="87" y="393" width="15" height="1" fill="#2a2824" opacity="0.08"/>
    <rect x="546" y="412" width="17" height="1" fill="#2a2824" opacity="0.12"/>
    <rect x="207" y="262" width="4" height="2" fill="#2a2824" opacity="0.09"/>
    <rect x="116" y="227" width="11" height="2" fill="#2a2824" opacity="0.09"/>
    <rect x="177" y="548" width="8" height="1" fill="#2a2824" opacity="0.13"/>
    <rect x="398" y="453" width="15" height="2" fill="#2a2824" opacity="0.05"/>
    <rect x="90" y="574" width="5" height="2" fill="#2a2824" opacity="0.11"/>
    <rect x="797" y="90" width="7" height="2" fill="#2a2824" opacity="0.08"/>
    <rect x="892" y="525" width="13" height="1" fill="#2a2824" opacity="0.03"/>
    <rect x="58" y="547" width="10" height="1" fill="#2a2824" opacity="0.05"/>
    <rect x="526" y="367" width="19" height="2" fill="#2a2824" opacity="0.13"/>
    <rect x="683" y="599" width="9" height="2" fill="#2a2824" opacity="0.04"/>
    <rect x="615" y="221" width="3" height="2" fill="#2a2824" opacity="0.06"/>
    <rect x="593" y="163" width="12" height="2" fill="#2a2824" opacity="0.13"/>
    <rect x="216" y="586" width="7" height="1" fill="#2a2824" opacity="0.06"/>
    <rect x="870" y="434" width="14" height="2" fill="#2a2824" opacity="0.12"/>
    <rect x="861" y="335" width="13" height="1" fill="#2a2824" opacity="0.07"/>
    <rect x="366" y="419" width="7" height="1" fill="#2a2824" opacity="0.06"/>
    <rect x="353" y="188" width="4" height="2" fill="#2a2824" opacity="0.05"/>
    <rect x="738" y="329" width="9" height="2" fill="#2a2824" opacity="0.11"/>
    <rect x="811" y="541" width="5" height="2" fill="#2a2824" opacity="0.10"/>
    <rect x="458" y="407" width="15" height="1" fill="#2a2824" opacity="0.07"/>
    <rect x="842" y="384" width="17" height="2" fill="#2a2824" opacity="0.05"/>
    <rect x="547" y="304" width="10" height="2" fill="#2a2824" opacity="0.06"/>
    <rect x="342" y="587" width="2" height="2" fill="#2a2824" opacity="0.08"/>
    <rect x="244" y="606" width="4" height="1" fill="#2a2824" opacity="0.09"/>
    <rect x="520" y="54" width="10" height="1" fill="#2a2824" opacity="0.03"/>
    <rect x="635" y="441" width="15" height="2" fill="#2a2824" opacity="0.11"/>
    <rect x="684" y="227" width="5" height="1" fill="#2a2824" opacity="0.09"/>
    <rect x="296" y="566" width="5" height="1" fill="#2a2824" opacity="0.04"/>
    <rect x="525" y="43" width="20" height="1" fill="#2a2824" opacity="0.13"/>
    <rect x="153" y="215" width="12" height="1" fill="#2a2824" opacity="0.14"/>
    <rect x="331" y="205" width="11" height="2" fill="#2a2824" opacity="0.03"/>
    <rect x="350" y="467" width="21" height="1" fill="#2a2824" opacity="0.14"/>
    <rect x="730" y="241" width="13" height="1" fill="#2a2824" opacity="0.13"/>
    <rect x="489" y="30" width="21" height="1" fill="#2a2824" opacity="0.08"/>
    <rect x="315" y="33" width="20" height="2" fill="#2a2824" opacity="0.12"/>
    <rect x="692" y="283" width="12" height="1" fill="#2a2824" opacity="0.09"/>
    <rect x="925" y="564" width="20" height="2" fill="#2a2824" opacity="0.06"/>
    <rect x="515" y="214" width="4" height="1" fill="#2a2824" opacity="0.13"/>
    <rect x="438" y="310" width="3" height="2" fill="#2a2824" opacity="0.10"/>
    <rect x="312" y="491" width="16" height="2" fill="#2a2824" opacity="0.11"/>
    <rect x="859" y="128" width="21" height="2" fill="#2a2824" opacity="0.06"/>
    <rect x="437" y="105" width="5" height="1" fill="#2a2824" opacity="0.03"/>
    <rect x="591" y="254" width="21" height="1" fill="#2a2824" opacity="0.09"/>
    <rect x="886" y="371" width="12" height="1" fill="#2a2824" opacity="0.07"/>
    <rect x="336" y="188" width="8" height="2" fill="#2a2824" opacity="0.02"/>
    <rect x="724" y="267" width="20" height="1" fill="#2a2824" opacity="0.13"/>
    <rect x="371" y="540" width="7" height="1" fill="#2a2824" opacity="0.05"/>
    <rect x="582" y="566" width="9" height="1" fill="#2a2824" opacity="0.05"/>
    <rect x="222" y="453" width="21" height="2" fill="#2a2824" opacity="0.13"/>
    <rect x="471" y="184" width="18" height="1" fill="#2a2824" opacity="0.13"/>
    <rect x="601" y="348" width="9" height="2" fill="#2a2824" opacity="0.11"/>
    <rect x="299" y="574" width="5" height="1" fill="#2a2824" opacity="0.06"/>
    <rect x="392" y="538" width="6" height="1" fill="#2a2824" opacity="0.13"/>
    <rect x="143" y="391" width="6" height="1" fill="#2a2824" opacity="0.13"/>
    <rect x="124" y="476" width="7" height="1" fill="#2a2824" opacity="0.04"/>
    <rect x="857" y="259" width="15" height="2" fill="#2a2824" opacity="0.05"/>
    <rect x="105" y="303" width="5" height="2" fill="#2a2824" opacity="0.09"/>
    <rect x="289" y="40" width="16" height="2" fill="#2a2824" opacity="0.10"/>
    <rect x="452" y="435" width="16" height="1" fill="#2a2824" opacity="0.09"/>
    <rect x="533" y="458" width="7" height="2" fill="#2a2824" opacity="0.11"/>
    <rect x="263" y="531" width="7" height="2" fill="#2a2824" opacity="0.09"/>
    <rect x="157" y="444" width="12" height="2" fill="#2a2824" opacity="0.12"/>
    <rect x="129" y="133" width="4" height="2" fill="#2a2824" opacity="0.12"/>
    <rect x="73" y="280" width="13" height="1" fill="#2a2824" opacity="0.09"/>
    <rect x="153" y="506" width="2" height="2" fill="#2a2824" opacity="0.06"/>
    <rect x="515" y="629" width="7" height="2" fill="#2a2824" opacity="0.07"/>
    <rect x="118" y="202" width="5" height="2" fill="#2a2824" opacity="0.08"/>
    <rect x="299" y="190" width="20" height="2" fill="#2a2824" opacity="0.02"/>
    <rect x="652" y="387" width="6" height="2" fill="#2a2824" opacity="0.02"/>
    <rect x="743" y="235" width="9" height="2" fill="#2a2824" opacity="0.10"/>
    <rect x="147" y="217" width="21" height="2" fill="#2a2824" opacity="0.04"/>
    <rect x="742" y="524" width="13" height="2" fill="#2a2824" opacity="0.10"/>
    <rect x="746" y="541" width="7" height="2" fill="#2a2824" opacity="0.08"/>
    <rect x="875" y="370" width="13" height="2" fill="#2a2824" opacity="0.06"/>
    <rect x="378" y="261" width="19" height="2" fill="#2a2824" opacity="0.12"/>
    <rect x="380" y="562" width="11" height="2" fill="#2a2824" opacity="0.05"/>
    <rect x="841" y="568" width="12" height="2" fill="#2a2824" opacity="0.12"/>
    <rect x="197" y="384" width="11" height="2" fill="#2a2824" opacity="0.05"/>
    <rect x="654" y="161" width="21" height="2" fill="#2a2824" opacity="0.11"/>
    <rect x="515" y="219" width="2" height="1" fill="#2a2824" opacity="0.03"/>
    <rect x="776" y="155" width="9" height="1" fill="#2a2824" opacity="0.02"/>
    <rect x="778" y="184" width="9" height="2" fill="#2a2824" opacity="0.13"/>
    <rect x="788" y="148" width="10" height="1" fill="#2a2824" opacity="0.10"/>
    <rect x="128" y="547" width="20" height="1" fill="#2a2824" opacity="0.13"/>
    <rect x="320" y="402" width="10" height="1" fill="#2a2824" opacity="0.06"/>
    <rect x="327" y="521" width="6" height="2" fill="#2a2824" opacity="0.05"/>
    <rect x="551" y="151" width="12" height="1" fill="#2a2824" opacity="0.12"/>
    <rect x="760" y="93" width="4" height="1" fill="#2a2824" opacity="0.04"/>
    <rect x="84" y="218" width="7" height="1" fill="#2a2824" opacity="0.06"/>
    <rect x="305" y="170" width="17" height="1" fill="#2a2824" opacity="0.13"/>
    <rect x="263" y="326" width="17" height="1" fill="#2a2824" opacity="0.09"/>
    <rect x="510" y="238" width="8" height="1" fill="#2a2824" opacity="0.11"/>
    <rect x="412" y="350" width="9" height="2" fill="#2a2824" opacity="0.05"/>
    <rect x="190" y="126" width="14" height="2" fill="#2a2824" opacity="0.12"/>
    <rect x="205" y="277" width="2" height="1" fill="#2a2824" opacity="0.11"/>
    <rect x="312" y="309" width="7" height="1" fill="#2a2824" opacity="0.12"/>
    <rect x="616" y="413" width="19" height="1" fill="#2a2824" opacity="0.10"/>
    <rect x="412" y="64" width="6" height="2" fill="#2a2824" opacity="0.12"/>
    <rect x="780" y="334" width="9" height="2" fill="#2a2824" opacity="0.04"/>
    <rect x="588" y="487" width="18" height="2" fill="#2a2824" opacity="0.03"/>
    <rect x="662" y="97" width="16" height="2" fill="#2a2824" opacity="0.11"/>
    <rect x="816" y="455" width="3" height="2" fill="#2a2824" opacity="0.14"/>
    <rect x="688" y="323" width="10" height="1" fill="#2a2824" opacity="0.12"/>
    <rect x="681" y="349" width="20" height="1" fill="#2a2824" opacity="0.14"/>
    <rect x="549" y="163" width="10" height="1" fill="#2a2824" opacity="0.08"/>
    <rect x="102" y="308" width="18" height="2" fill="#2a2824" opacity="0.03"/>
    <rect x="654" y="47" width="9" height="2" fill="#2a2824" opacity="0.11"/>
    <rect x="748" y="92" width="12" height="1" fill="#2a2824" opacity="0.02"/>
    <rect x="229" y="342" width="4" height="2" fill="#2a2824" opacity="0.07"/>
    <rect x="309" y="334" width="10" height="2" fill="#2a2824" opacity="0.04"/>
    <rect x="856" y="567" width="18" height="1" fill="#2a2824" opacity="0.12"/>
    <rect x="713" y="418" width="3" height="1" fill="#2a2824" opacity="0.06"/>
    <rect x="196" y="552" width="21" height="2" fill="#2a2824" opacity="0.02"/>
    <rect x="463" y="142" width="19" height="2" fill="#2a2824" opacity="0.03"/>
    <rect x="50" y="521" width="9" height="2" fill="#2a2824" opacity="0.10"/>
    <rect x="356" y="35" width="18" height="2" fill="#2a2824" opacity="0.13"/>
    <rect x="590" y="86" width="6" height="2" fill="#2a2824" opacity="0.12"/>
    <rect x="700" y="37" width="20" height="1" fill="#2a2824" opacity="0.08"/>
  </g>
  <g transform="translate(480, 300)" text-anchor="middle" font-family="Helvetica, Arial, sans-serif">
    <text font-size="14" letter-spacing="6" fill="#8c8880" y="-40">ARTIFACT 03</text>
    <text font-size="42" font-weight="800" fill="#2a2824" y="10" letter-spacing="-0.5">GUGGENHEIM RECEPTION</text>
    <text font-size="14" fill="#8c8880" y="50" letter-spacing="3">Wright · 1943–56</text>
  </g>
  <g transform="translate(480, 600)" text-anchor="middle" font-family="Helvetica, Arial, sans-serif">
    <text font-size="10" letter-spacing="4" fill="#65615a" opacity="0.6">PLACEHOLDER</text>
  </g>
</svg>
