<svg xmlns="http://www.w3.org/2000/svg" viewBox="0 0 220 160" width="220" height="160">
  <rect width="220" height="160" fill="#2b496d"/>
  <rect x="8" y="8" width="204" height="144" fill="none" stroke="#c7d9ec" stroke-width="1"/>
  <g opacity="0.6">
    <rect x="319" y="362" width="6" height="1" fill="#e4eef7" opacity="0.08"/>
    <rect x="310" y="328" width="8" height="2" fill="#e4eef7" opacity="0.11"/>
    <rect x="345" y="117" width="7" height="2" fill="#e4eef7" opacity="0.04"/>
    <rect x="688" y="574" width="7" height="2" fill="#e4eef7" opacity="0.14"/>
    <rect x="731" y="445" width="13" height="2" fill="#e4eef7" opacity="0.10"/>
    <rect x="196" y="157" width="10" height="2" fill="#e4eef7" opacity="0.09"/>
    <rect x="632" y="592" width="17" height="1" fill="#e4eef7" opacity="0.12"/>
    <rect x="324" y="419" width="4" height="2" fill="#e4eef7" opacity="0.12"/>
    <rect x="82" y="230" width="18" height="1" fill="#e4eef7" opacity="0.12"/>
    <rect x="563" y="191" width="11" height="2" fill="#e4eef7" opacity="0.10"/>
    <rect x="504" y="489" width="20" height="2" fill="#e4eef7" opacity="0.11"/>
    <rect x="843" y="381" width="5" height="2" fill="#e4eef7" opacity="0.09"/>
    <rect x="266" y="337" width="18" height="1" fill="#e4eef7" opacity="0.06"/>
    <rect x="601" y="474" width="13" height="2" fill="#e4eef7" opacity="0.08"/>
    <rect x="297" y="173" width="15" height="1" fill="#e4eef7" opacity="0.06"/>
    <rect x="221" y="114" width="20" height="1" fill="#e4eef7" opacity="0.03"/>
    <rect x="171" y="278" width="3" height="2" fill="#e4eef7" opacity="0.12"/>
    <rect x="835" y="284" width="9" height="1" fill="#e4eef7" opacity="0.11"/>
    <rect x="865" y="415" width="11" height="2" fill="#e4eef7" opacity="0.02"/>
    <rect x="660" y="547" width="21" height="2" fill="#e4eef7" opacity="0.03"/>
    <rect x="513" y="133" width="5" height="2" fill="#e4eef7" opacity="0.12"/>
    <rect x="317" y="471" width="10" height="2" fill="#e4eef7" opacity="0.11"/>
    <rect x="340" y="136" width="20" height="2" fill="#e4eef7" opacity="0.10"/>
    <rect x="757" y="357" width="19" height="1" fill="#e4eef7" opacity="0.14"/>
    <rect x="309" y="264" width="8" height="1" fill="#e4eef7" opacity="0.11"/>
    <rect x="925" y="327" width="13" height="1" fill="#e4eef7" opacity="0.06"/>
    <rect x="708" y="263" width="3" height="2" fill="#e4eef7" opacity="0.08"/>
    <rect x="233" y="116" width="8" height="2" fill="#e4eef7" opacity="0.14"/>
    <rect x="511" y="79" width="12" height="2" fill="#e4eef7" opacity="0.05"/>
    <rect x="913" y="476" width="16" height="2" fill="#e4eef7" opacity="0.06"/>
    <rect x="210" y="384" width="18" height="2" fill="#e4eef7" opacity="0.08"/>
    <rect x="337" y="484" width="14" height="1" fill="#e4eef7" opacity="0.05"/>
    <rect x="288" y="487" width="2" height="2" fill="#e4eef7" opacity="0.10"/>
    <rect x="757" y="440" width="14" height="1" fill="#e4eef7" opacity="0.13"/>
    <rect x="322" y="266" width="12" height="1" fill="#e4eef7" opacity="0.08"/>
  </g>
  <g transform="translate(110, 80)" text-anchor="middle" font-family="Helvetica, Arial, sans-serif">
    <text font-size="10" letter-spacing="3" fill="#7fa8cd" y="-4">ALT 1</text>
    <text font-size="14" font-weight="700" fill="#e4eef7" y="14">04.1</text>
  </g>
</svg>
