<svg xmlns="http://www.w3.org/2000/svg" viewBox="0 0 960 660" width="960" height="660" aria-label="TURNSTILE PATENT placeholder">
  <rect width="960" height="660" fill="#2b496d"/>
  <rect x="20" y="20" width="920" height="620" fill="none" stroke="#c7d9ec" stroke-width="2"/>
  <g opacity="0.7">
    <rect x="43" y="479" width="13" height="1" fill="#e4eef7" opacity="0.05"/>
    <rect x="745" y="514" width="18" height="2" fill="#e4eef7" opacity="0.13"/>
    <rect x="274" y="521" width="16" height="1" fill="#e4eef7" opacity="0.07"/>
    <rect x="516" y="134" width="18" height="2" fill="#e4eef7" opacity="0.14"/>
    <rect x="913" y="407" width="21" height="1" fill="#e4eef7" opacity="0.10"/>
    <rect x="586" y="233" width="18" height="1" fill="#e4eef7" opacity="0.13"/>
    <rect x="147" y="396" width="20" height="1" fill="#e4eef7" opacity="0.13"/>
    <rect x="591" y="441" width="19" height="1" fill="#e4eef7" opacity="0.04"/>
    <rect x="141" y="249" width="5" height="1" fill="#e4eef7" opacity="0.07"/>
    <rect x="412" y="566" width="21" height="2" fill="#e4eef7" opacity="0.06"/>
    <rect x="255" y="208" width="11" height="2" fill="#e4eef7" opacity="0.13"/>
    <rect x="868" y="608" width="6" height="1" fill="#e4eef7" opacity="0.06"/>
    <rect x="889" y="159" width="21" height="1" fill="#e4eef7" opacity="0.12"/>
    <rect x="699" y="593" width="9" height="1" fill="#e4eef7" opacity="0.06"/>
    <rect x="560" y="495" width="17" height="2" fill="#e4eef7" opacity="0.07"/>
    <rect x="253" y="265" width="12" height="2" fill="#e4eef7" opacity="0.02"/>
    <rect x="605" y="347" width="17" height="1" fill="#e4eef7" opacity="0.12"/>
    <rect x="561" y="497" width="3" height="1" fill="#e4eef7" opacity="0.03"/>
    <rect x="682" y="525" width="10" height="2" fill="#e4eef7" opacity="0.11"/>
    <rect x="636" y="102" width="5" height="1" fill="#e4eef7" opacity="0.02"/>
    <rect x="715" y="70" width="18" height="1" fill="#e4eef7" opacity="0.04"/>
    <rect x="446" y="68" width="14" height="1" fill="#e4eef7" opacity="0.10"/>
    <rect x="310" y="393" width="4" height="1" fill="#e4eef7" opacity="0.03"/>
    <rect x="33" y="224" width="17" height="2" fill="#e4eef7" opacity="0.10"/>
    <rect x="713" y="301" width="3" height="2" fill="#e4eef7" opacity="0.11"/>
    <rect x="603" y="226" width="3" height="1" fill="#e4eef7" opacity="0.08"/>
    <rect x="466" y="201" width="4" height="1" fill="#e4eef7" opacity="0.06"/>
    <rect x="391" y="333" width="13" height="2" fill="#e4eef7" opacity="0.03"/>
    <rect x="838" y="593" width="19" height="1" fill="#e4eef7" opacity="0.08"/>
    <rect x="208" y="164" width="7" height="2" fill="#e4eef7" opacity="0.06"/>
    <rect x="868" y="149" width="8" height="2" fill="#e4eef7" opacity="0.11"/>
    <rect x="199" y="442" width="15" height="1" fill="#e4eef7" opacity="0.06"/>
    <rect x="360" y="137" width="4" height="1" fill="#e4eef7" opacity="0.12"/>
    <rect x="726" y="334" width="10" height="1" fill="#e4eef7" opacity="0.07"/>
    <rect x="466" y="464" width="15" height="2" fill="#e4eef7" opacity="0.06"/>
    <rect x="458" y="502" width="17" height="1" fill="#e4eef7" opacity="0.07"/>
    <rect x="310" y="474" width="13" height="2" fill="#e4eef7" opacity="0.13"/>
    <rect x="820" y="219" width="4" height="1" fill="#e4eef7" opacity="0.12"/>
    <rect x="645" y="550" width="2" height="2" fill="#e4eef7" opacity="0.11"/>
    <rect x="36" y="302" width="7" height="1" fill="#e4eef7" opacity="0.04"/>
    <rect x="131" y="564" width="10" height="2" fill="#e4eef7" opacity="0.09"/>
    <rect x="206" y="436" width="20" height="1" fill="#e4eef7" opacity="0.06"/>
    <rect x="391" y="317" width="20" height="1" fill="#e4eef7" opacity="0.12"/>
    <rect x="493" y="348" width="21" height="2" fill="#e4eef7" opacity="0.12"/>
    <rect x="30" y="436" width="8" height="1" fill="#e4eef7" opacity="0.12"/>
    <rect x="429" y="347" width="19" height="2" fill="#e4eef7" opacity="0.06"/>
    <rect x="637" y="373" width="5" height="1" fill="#e4eef7" opacity="0.10"/>
    <rect x="805" y="398" width="3" height="2" fill="#e4eef7" opacity="0.10"/>
    <rect x="42" y="325" width="17" height="2" fill="#e4eef7" opacity="0.03"/>
    <rect x="830" y="315" width="13" height="1" fill="#e4eef7" opacity="0.08"/>
    <rect x="748" y="533" width="12" height="2" fill="#e4eef7" opacity="0.10"/>
    <rect x="404" y="370" width="3" height="2" fill="#e4eef7" opacity="0.09"/>
    <rect x="346" y="31" width="16" height="1" fill="#e4eef7" opacity="0.03"/>
    <rect x="748" y="316" width="18" height="1" fill="#e4eef7" opacity="0.07"/>
    <rect x="323" y="624" width="17" height="2" fill="#e4eef7" opacity="0.09"/>
    <rect x="801" y="200" width="9" height="2" fill="#e4eef7" opacity="0.11"/>
    <rect x="356" y="222" width="21" height="1" fill="#e4eef7" opacity="0.10"/>
    <rect x="165" y="557" width="2" height="2" fill="#e4eef7" opacity="0.09"/>
    <rect x="515" y="87" width="11" height="2" fill="#e4eef7" opacity="0.05"/>
    <rect x="719" y="559" width="14" height="2" fill="#e4eef7" opacity="0.08"/>
    <rect x="817" y="104" width="17" height="2" fill="#e4eef7" opacity="0.04"/>
    <rect x="154" y="326" width="5" height="2" fill="#e4eef7" opacity="0.11"/>
    <rect x="634" y="421" width="5" height="2" fill="#e4eef7" opacity="0.08"/>
    <rect x="467" y="140" width="8" height="2" fill="#e4eef7" opacity="0.02"/>
    <rect x="145" y="207" width="12" height="2" fill="#e4eef7" opacity="0.11"/>
    <rect x="714" y="461" width="20" height="2" fill="#e4eef7" opacity="0.11"/>
    <rect x="265" y="290" width="17" height="1" fill="#e4eef7" opacity="0.03"/>
    <rect x="127" y="200" width="2" height="2" fill="#e4eef7" opacity="0.08"/>
    <rect x="532" y="457" width="2" height="1" fill="#e4eef7" opacity="0.13"/>
    <rect x="167" y="137" width="16" height="2" fill="#e4eef7" opacity="0.13"/>
    <rect x="205" y="338" width="14" height="2" fill="#e4eef7" opacity="0.08"/>
    <rect x="733" y="420" width="11" height="2" fill="#e4eef7" opacity="0.05"/>
    <rect x="117" y="221" width="7" height="1" fill="#e4eef7" opacity="0.11"/>
    <rect x="466" y="612" width="7" height="2" fill="#e4eef7" opacity="0.04"/>
    <rect x="734" y="388" width="13" height="1" fill="#e4eef7" opacity="0.14"/>
    <rect x="618" y="41" width="18" height="2" fill="#e4eef7" opacity="0.14"/>
    <rect x="827" y="437" width="20" height="2" fill="#e4eef7" opacity="0.10"/>
    <rect x="197" y="151" width="12" height="2" fill="#e4eef7" opacity="0.13"/>
    <rect x="254" y="366" width="12" height="2" fill="#e4eef7" opacity="0.03"/>
    <rect x="403" y="623" width="9" height="1" fill="#e4eef7" opacity="0.13"/>
    <rect x="835" y="407" width="7" height="2" fill="#e4eef7" opacity="0.11"/>
    <rect x="119" y="164" width="18" height="2" fill="#e4eef7" opacity="0.13"/>
    <rect x="220" y="524" width="3" height="1" fill="#e4eef7" opacity="0.14"/>
    <rect x="786" y="279" width="19" height="2" fill="#e4eef7" opacity="0.07"/>
    <rect x="43" y="278" width="2" height="2" fill="#e4eef7" opacity="0.07"/>
    <rect x="291" y="324" width="5" height="1" fill="#e4eef7" opacity="0.06"/>
    <rect x="39" y="262" width="8" height="1" fill="#e4eef7" opacity="0.13"/>
    <rect x="545" y="127" width="5" height="1" fill="#e4eef7" opacity="0.04"/>
    <rect x="49" y="479" width="14" height="1" fill="#e4eef7" opacity="0.11"/>
    <rect x="753" y="625" width="6" height="1" fill="#e4eef7" opacity="0.04"/>
    <rect x="225" y="439" width="13" height="2" fill="#e4eef7" opacity="0.09"/>
    <rect x="159" y="249" width="2" height="2" fill="#e4eef7" opacity="0.09"/>
    <rect x="475" y="543" width="2" height="2" fill="#e4eef7" opacity="0.10"/>
    <rect x="224" y="88" width="8" height="1" fill="#e4eef7" opacity="0.10"/>
    <rect x="401" y="153" width="7" height="2" fill="#e4eef7" opacity="0.02"/>
    <rect x="406" y="531" width="21" height="1" fill="#e4eef7" opacity="0.13"/>
    <rect x="340" y="585" width="20" height="1" fill="#e4eef7" opacity="0.11"/>
    <rect x="834" y="288" width="9" height="1" fill="#e4eef7" opacity="0.11"/>
    <rect x="835" y="111" width="11" height="2" fill="#e4eef7" opacity="0.04"/>
    <rect x="327" y="36" width="16" height="1" fill="#e4eef7" opacity="0.09"/>
    <rect x="260" y="581" width="9" height="1" fill="#e4eef7" opacity="0.13"/>
    <rect x="788" y="380" width="5" height="1" fill="#e4eef7" opacity="0.08"/>
    <rect x="230" y="455" width="6" height="2" fill="#e4eef7" opacity="0.11"/>
    <rect x="511" y="207" width="20" height="2" fill="#e4eef7" opacity="0.09"/>
    <rect x="190" y="578" width="10" height="1" fill="#e4eef7" opacity="0.07"/>
    <rect x="593" y="468" width="14" height="2" fill="#e4eef7" opacity="0.12"/>
    <rect x="336" y="76" width="9" height="2" fill="#e4eef7" opacity="0.04"/>
    <rect x="289" y="346" width="17" height="1" fill="#e4eef7" opacity="0.02"/>
    <rect x="136" y="528" width="13" height="1" fill="#e4eef7" opacity="0.06"/>
    <rect x="105" y="54" width="9" height="1" fill="#e4eef7" opacity="0.09"/>
    <rect x="671" y="377" width="20" height="2" fill="#e4eef7" opacity="0.03"/>
    <rect x="227" y="82" width="19" height="2" fill="#e4eef7" opacity="0.04"/>
    <rect x="907" y="595" width="15" height="1" fill="#e4eef7" opacity="0.08"/>
    <rect x="725" y="488" width="13" height="2" fill="#e4eef7" opacity="0.14"/>
    <rect x="541" y="71" width="10" height="1" fill="#e4eef7" opacity="0.14"/>
    <rect x="566" y="225" width="9" height="2" fill="#e4eef7" opacity="0.11"/>
    <rect x="172" y="177" width="4" height="2" fill="#e4eef7" opacity="0.09"/>
    <rect x="830" y="496" width="10" height="2" fill="#e4eef7" opacity="0.13"/>
    <rect x="517" y="398" width="19" height="2" fill="#e4eef7" opacity="0.03"/>
    <rect x="443" y="433" width="12" height="2" fill="#e4eef7" opacity="0.02"/>
  </g>
  <g transform="translate(480, 300)" text-anchor="middle" font-family="Helvetica, Arial, sans-serif">
    <text font-size="14" letter-spacing="6" fill="#7fa8cd" y="-40">ARTIFACT 04</text>
    <text font-size="42" font-weight="800" fill="#e4eef7" y="10" letter-spacing="-0.5">TURNSTILE PATENT</text>
    <text font-size="14" fill="#7fa8cd" y="50" letter-spacing="3">USPTO · 1928</text>
  </g>
  <g transform="translate(480, 600)" text-anchor="middle" font-family="Helvetica, Arial, sans-serif">
    <text font-size="10" letter-spacing="4" fill="#c7d9ec" opacity="0.6">PLACEHOLDER</text>
  </g>
</svg>
