<svg xmlns="http://www.w3.org/2000/svg" viewBox="0 0 220 160" width="220" height="160">
  <rect width="220" height="160" fill="#bfb7a8"/>
  <rect x="8" y="8" width="204" height="144" fill="none" stroke="#2d2a24" stroke-width="1"/>
  <g opacity="0.6">
    <rect x="577" y="248" width="10" height="2" fill="#1c1a18" opacity="0.12"/>
    <rect x="801" y="602" width="17" height="2" fill="#1c1a18" opacity="0.06"/>
    <rect x="80" y="39" width="4" height="1" fill="#1c1a18" opacity="0.07"/>
    <rect x="401" y="305" width="9" height="2" fill="#1c1a18" opacity="0.05"/>
    <rect x="395" y="287" width="2" height="1" fill="#1c1a18" opacity="0.03"/>
    <rect x="196" y="578" width="2" height="1" fill="#1c1a18" opacity="0.05"/>
    <rect x="679" y="187" width="3" height="1" fill="#1c1a18" opacity="0.03"/>
    <rect x="570" y="146" width="15" height="1" fill="#1c1a18" opacity="0.12"/>
    <rect x="380" y="44" width="15" height="2" fill="#1c1a18" opacity="0.11"/>
    <rect x="374" y="82" width="21" height="2" fill="#1c1a18" opacity="0.07"/>
    <rect x="888" y="435" width="15" height="1" fill="#1c1a18" opacity="0.13"/>
    <rect x="542" y="152" width="20" height="1" fill="#1c1a18" opacity="0.09"/>
    <rect x="71" y="431" width="7" height="2" fill="#1c1a18" opacity="0.09"/>
    <rect x="107" y="103" width="4" height="1" fill="#1c1a18" opacity="0.03"/>
    <rect x="156" y="381" width="13" height="1" fill="#1c1a18" opacity="0.09"/>
    <rect x="816" y="560" width="19" height="2" fill="#1c1a18" opacity="0.13"/>
    <rect x="465" y="428" width="14" height="1" fill="#1c1a18" opacity="0.12"/>
    <rect x="829" y="436" width="4" height="2" fill="#1c1a18" opacity="0.10"/>
    <rect x="113" y="310" width="5" height="1" fill="#1c1a18" opacity="0.13"/>
    <rect x="918" y="189" width="15" height="2" fill="#1c1a18" opacity="0.14"/>
    <rect x="485" y="589" width="6" height="2" fill="#1c1a18" opacity="0.08"/>
    <rect x="649" y="46" width="21" height="1" fill="#1c1a18" opacity="0.07"/>
    <rect x="578" y="295" width="7" height="1" fill="#1c1a18" opacity="0.12"/>
    <rect x="608" y="262" width="4" height="1" fill="#1c1a18" opacity="0.09"/>
    <rect x="47" y="443" width="12" height="2" fill="#1c1a18" opacity="0.10"/>
    <rect x="45" y="492" width="17" height="2" fill="#1c1a18" opacity="0.05"/>
    <rect x="206" y="346" width="3" height="1" fill="#1c1a18" opacity="0.10"/>
    <rect x="248" y="163" width="9" height="2" fill="#1c1a18" opacity="0.14"/>
    <rect x="593" y="239" width="13" height="2" fill="#1c1a18" opacity="0.05"/>
    <rect x="361" y="195" width="12" height="1" fill="#1c1a18" opacity="0.07"/>
    <rect x="745" y="176" width="2" height="1" fill="#1c1a18" opacity="0.05"/>
    <rect x="614" y="606" width="6" height="1" fill="#1c1a18" opacity="0.03"/>
    <rect x="59" y="528" width="14" height="1" fill="#1c1a18" opacity="0.12"/>
    <rect x="388" y="252" width="19" height="2" fill="#1c1a18" opacity="0.12"/>
    <rect x="63" y="389" width="9" height="1" fill="#1c1a18" opacity="0.02"/>
  </g>
  <g transform="translate(110, 80)" text-anchor="middle" font-family="Helvetica, Arial, sans-serif">
    <text font-size="10" letter-spacing="3" fill="#7e7568" y="-4">ALT 1</text>
    <text font-size="14" font-weight="700" fill="#1c1a18" y="14">05.1</text>
  </g>
</svg>
