<svg xmlns="http://www.w3.org/2000/svg" viewBox="0 0 220 160" width="220" height="160">
  <rect width="220" height="160" fill="#bfb7a8"/>
  <rect x="8" y="8" width="204" height="144" fill="none" stroke="#2d2a24" stroke-width="1"/>
  <g opacity="0.6">
    <rect x="159" y="32" width="15" height="2" fill="#1c1a18" opacity="0.03"/>
    <rect x="41" y="99" width="19" height="2" fill="#1c1a18" opacity="0.05"/>
    <rect x="63" y="97" width="15" height="2" fill="#1c1a18" opacity="0.03"/>
    <rect x="44" y="58" width="11" height="1" fill="#1c1a18" opacity="0.10"/>
    <rect x="83" y="47" width="8" height="2" fill="#1c1a18" opacity="0.13"/>
    <rect x="100" y="120" width="9" height="2" fill="#1c1a18" opacity="0.05"/>
    <rect x="154" y="97" width="2" height="2" fill="#1c1a18" opacity="0.13"/>
    <rect x="62" y="40" width="2" height="1" fill="#1c1a18" opacity="0.06"/>
    <rect x="127" y="53" width="18" height="2" fill="#1c1a18" opacity="0.05"/>
    <rect x="81" y="57" width="18" height="2" fill="#1c1a18" opacity="0.13"/>
    <rect x="165" y="124" width="3" height="1" fill="#1c1a18" opacity="0.08"/>
    <rect x="184" y="63" width="5" height="2" fill="#1c1a18" opacity="0.05"/>
    <rect x="38" y="80" width="16" height="2" fill="#1c1a18" opacity="0.13"/>
    <rect x="102" y="74" width="8" height="1" fill="#1c1a18" opacity="0.12"/>
    <rect x="181" y="83" width="8" height="1" fill="#1c1a18" opacity="0.10"/>
    <rect x="131" y="76" width="19" height="1" fill="#1c1a18" opacity="0.12"/>
    <rect x="96" y="86" width="19" height="1" fill="#1c1a18" opacity="0.13"/>
    <rect x="175" y="86" width="2" height="2" fill="#1c1a18" opacity="0.02"/>
    <rect x="132" y="32" width="7" height="2" fill="#1c1a18" opacity="0.06"/>
    <rect x="87" y="38" width="10" height="1" fill="#1c1a18" opacity="0.08"/>
    <rect x="56" y="75" width="4" height="2" fill="#1c1a18" opacity="0.09"/>
    <rect x="132" y="63" width="11" height="2" fill="#1c1a18" opacity="0.12"/>
    <rect x="58" y="100" width="15" height="2" fill="#1c1a18" opacity="0.09"/>
    <rect x="90" y="50" width="11" height="2" fill="#1c1a18" opacity="0.12"/>
    <rect x="85" y="126" width="18" height="2" fill="#1c1a18" opacity="0.12"/>
    <rect x="64" y="57" width="17" height="1" fill="#1c1a18" opacity="0.06"/>
    <rect x="188" y="96" width="8" height="2" fill="#1c1a18" opacity="0.06"/>
    <rect x="134" y="129" width="16" height="2" fill="#1c1a18" opacity="0.10"/>
    <rect x="105" y="82" width="6" height="2" fill="#1c1a18" opacity="0.05"/>
    <rect x="129" y="102" width="7" height="1" fill="#1c1a18" opacity="0.03"/>
    <rect x="56" y="121" width="18" height="2" fill="#1c1a18" opacity="0.13"/>
    <rect x="139" y="124" width="4" height="2" fill="#1c1a18" opacity="0.07"/>
    <rect x="90" y="64" width="9" height="1" fill="#1c1a18" opacity="0.04"/>
    <rect x="62" y="128" width="5" height="1" fill="#1c1a18" opacity="0.13"/>
    <rect x="64" y="78" width="20" height="1" fill="#1c1a18" opacity="0.07"/>
  </g>
  <g transform="translate(110, 80)" text-anchor="middle" font-family="Helvetica, Arial, sans-serif">
    <text font-size="10" letter-spacing="3" fill="#7e7568" y="-4">ALT 1</text>
    <text font-size="14" font-weight="700" fill="#1c1a18" y="14">06.1</text>
  </g>
</svg>
