<svg xmlns="http://www.w3.org/2000/svg" viewBox="0 0 220 160" width="220" height="160">
  <rect width="220" height="160" fill="#bfb7a8"/>
  <rect x="8" y="8" width="204" height="144" fill="none" stroke="#2d2a24" stroke-width="1"/>
  <g opacity="0.6">
    <rect x="202" y="395" width="11" height="2" fill="#1c1a18" opacity="0.08"/>
    <rect x="727" y="172" width="14" height="1" fill="#1c1a18" opacity="0.08"/>
    <rect x="838" y="480" width="21" height="1" fill="#1c1a18" opacity="0.03"/>
    <rect x="281" y="139" width="2" height="1" fill="#1c1a18" opacity="0.12"/>
    <rect x="400" y="394" width="15" height="1" fill="#1c1a18" opacity="0.04"/>
    <rect x="825" y="111" width="3" height="1" fill="#1c1a18" opacity="0.10"/>
    <rect x="676" y="214" width="4" height="1" fill="#1c1a18" opacity="0.06"/>
    <rect x="116" y="191" width="3" height="2" fill="#1c1a18" opacity="0.08"/>
    <rect x="205" y="69" width="21" height="1" fill="#1c1a18" opacity="0.07"/>
    <rect x="741" y="177" width="4" height="2" fill="#1c1a18" opacity="0.13"/>
    <rect x="429" y="162" width="10" height="2" fill="#1c1a18" opacity="0.09"/>
    <rect x="137" y="119" width="21" height="2" fill="#1c1a18" opacity="0.09"/>
    <rect x="564" y="409" width="3" height="2" fill="#1c1a18" opacity="0.08"/>
    <rect x="184" y="321" width="2" height="1" fill="#1c1a18" opacity="0.04"/>
    <rect x="414" y="420" width="3" height="2" fill="#1c1a18" opacity="0.04"/>
    <rect x="888" y="523" width="16" height="2" fill="#1c1a18" opacity="0.07"/>
    <rect x="118" y="264" width="21" height="1" fill="#1c1a18" opacity="0.04"/>
    <rect x="765" y="233" width="9" height="2" fill="#1c1a18" opacity="0.05"/>
    <rect x="379" y="97" width="20" height="2" fill="#1c1a18" opacity="0.07"/>
    <rect x="639" y="512" width="18" height="2" fill="#1c1a18" opacity="0.11"/>
    <rect x="812" y="178" width="6" height="2" fill="#1c1a18" opacity="0.12"/>
    <rect x="675" y="90" width="21" height="1" fill="#1c1a18" opacity="0.13"/>
    <rect x="442" y="200" width="5" height="2" fill="#1c1a18" opacity="0.08"/>
    <rect x="411" y="378" width="13" height="2" fill="#1c1a18" opacity="0.13"/>
    <rect x="191" y="606" width="4" height="1" fill="#1c1a18" opacity="0.11"/>
    <rect x="234" y="380" width="13" height="2" fill="#1c1a18" opacity="0.09"/>
    <rect x="210" y="417" width="14" height="1" fill="#1c1a18" opacity="0.03"/>
    <rect x="460" y="177" width="4" height="2" fill="#1c1a18" opacity="0.13"/>
    <rect x="663" y="550" width="14" height="2" fill="#1c1a18" opacity="0.07"/>
    <rect x="285" y="285" width="19" height="2" fill="#1c1a18" opacity="0.05"/>
    <rect x="583" y="396" width="15" height="2" fill="#1c1a18" opacity="0.05"/>
    <rect x="291" y="104" width="18" height="1" fill="#1c1a18" opacity="0.03"/>
    <rect x="583" y="626" width="17" height="1" fill="#1c1a18" opacity="0.10"/>
    <rect x="437" y="294" width="3" height="2" fill="#1c1a18" opacity="0.11"/>
    <rect x="823" y="175" width="10" height="2" fill="#1c1a18" opacity="0.07"/>
  </g>
  <g transform="translate(110, 80)" text-anchor="middle" font-family="Helvetica, Arial, sans-serif">
    <text font-size="10" letter-spacing="3" fill="#7e7568" y="-4">ALT 1</text>
    <text font-size="14" font-weight="700" fill="#1c1a18" y="14">06.1</text>
  </g>
</svg>
