<svg xmlns="http://www.w3.org/2000/svg" viewBox="0 0 480 600" width="480" height="600" aria-label="PORT AUTHORITY placeholder">
  <rect width="480" height="600" fill="#bfb7a8"/>
  <rect x="16" y="16" width="448" height="568" fill="none" stroke="#2d2a24" stroke-width="2"/>
  <g opacity="0.7">
    <rect x="392" y="547" width="5" height="1" fill="#1c1a18" opacity="0.10"/>
    <rect x="185" y="418" width="11" height="1" fill="#1c1a18" opacity="0.05"/>
    <rect x="169" y="569" width="21" height="2" fill="#1c1a18" opacity="0.04"/>
    <rect x="378" y="211" width="3" height="1" fill="#1c1a18" opacity="0.07"/>
    <rect x="175" y="300" width="8" height="2" fill="#1c1a18" opacity="0.03"/>
    <rect x="185" y="97" width="11" height="2" fill="#1c1a18" opacity="0.13"/>
    <rect x="286" y="301" width="19" height="1" fill="#1c1a18" opacity="0.06"/>
    <rect x="429" y="150" width="19" height="2" fill="#1c1a18" opacity="0.04"/>
    <rect x="367" y="395" width="6" height="1" fill="#1c1a18" opacity="0.10"/>
    <rect x="415" y="486" width="3" height="1" fill="#1c1a18" opacity="0.10"/>
    <rect x="167" y="317" width="11" height="2" fill="#1c1a18" opacity="0.12"/>
    <rect x="218" y="59" width="9" height="1" fill="#1c1a18" opacity="0.09"/>
    <rect x="406" y="107" width="3" height="2" fill="#1c1a18" opacity="0.05"/>
    <rect x="311" y="357" width="19" height="1" fill="#1c1a18" opacity="0.06"/>
    <rect x="445" y="109" width="10" height="2" fill="#1c1a18" opacity="0.09"/>
    <rect x="38" y="147" width="2" height="2" fill="#1c1a18" opacity="0.12"/>
    <rect x="342" y="172" width="18" height="1" fill="#1c1a18" opacity="0.12"/>
    <rect x="221" y="497" width="13" height="2" fill="#1c1a18" opacity="0.13"/>
    <rect x="183" y="487" width="7" height="2" fill="#1c1a18" opacity="0.10"/>
    <rect x="53" y="170" width="11" height="1" fill="#1c1a18" opacity="0.03"/>
    <rect x="442" y="64" width="5" height="2" fill="#1c1a18" opacity="0.06"/>
    <rect x="409" y="92" width="16" height="2" fill="#1c1a18" opacity="0.05"/>
    <rect x="171" y="387" width="3" height="2" fill="#1c1a18" opacity="0.06"/>
    <rect x="162" y="500" width="20" height="2" fill="#1c1a18" opacity="0.10"/>
    <rect x="90" y="480" width="20" height="1" fill="#1c1a18" opacity="0.07"/>
    <rect x="384" y="106" width="19" height="1" fill="#1c1a18" opacity="0.11"/>
    <rect x="413" y="512" width="11" height="1" fill="#1c1a18" opacity="0.13"/>
    <rect x="96" y="214" width="3" height="1" fill="#1c1a18" opacity="0.07"/>
    <rect x="262" y="188" width="19" height="1" fill="#1c1a18" opacity="0.09"/>
    <rect x="400" y="430" width="11" height="1" fill="#1c1a18" opacity="0.09"/>
    <rect x="236" y="444" width="7" height="2" fill="#1c1a18" opacity="0.12"/>
    <rect x="250" y="445" width="18" height="1" fill="#1c1a18" opacity="0.04"/>
    <rect x="376" y="148" width="9" height="2" fill="#1c1a18" opacity="0.09"/>
    <rect x="325" y="217" width="18" height="2" fill="#1c1a18" opacity="0.07"/>
    <rect x="64" y="301" width="21" height="2" fill="#1c1a18" opacity="0.07"/>
    <rect x="280" y="286" width="14" height="1" fill="#1c1a18" opacity="0.02"/>
    <rect x="210" y="330" width="10" height="1" fill="#1c1a18" opacity="0.06"/>
    <rect x="433" y="313" width="14" height="1" fill="#1c1a18" opacity="0.11"/>
    <rect x="414" y="503" width="16" height="1" fill="#1c1a18" opacity="0.06"/>
    <rect x="411" y="279" width="3" height="2" fill="#1c1a18" opacity="0.03"/>
    <rect x="394" y="393" width="11" height="1" fill="#1c1a18" opacity="0.10"/>
    <rect x="218" y="177" width="11" height="1" fill="#1c1a18" opacity="0.03"/>
    <rect x="181" y="511" width="13" height="2" fill="#1c1a18" opacity="0.12"/>
    <rect x="190" y="476" width="18" height="2" fill="#1c1a18" opacity="0.06"/>
    <rect x="263" y="552" width="7" height="1" fill="#1c1a18" opacity="0.03"/>
    <rect x="396" y="98" width="9" height="2" fill="#1c1a18" opacity="0.11"/>
    <rect x="338" y="568" width="13" height="2" fill="#1c1a18" opacity="0.07"/>
    <rect x="99" y="529" width="16" height="2" fill="#1c1a18" opacity="0.06"/>
    <rect x="118" y="564" width="7" height="1" fill="#1c1a18" opacity="0.12"/>
    <rect x="394" y="273" width="7" height="1" fill="#1c1a18" opacity="0.10"/>
    <rect x="73" y="31" width="11" height="2" fill="#1c1a18" opacity="0.05"/>
    <rect x="161" y="280" width="4" height="1" fill="#1c1a18" opacity="0.14"/>
    <rect x="281" y="266" width="5" height="2" fill="#1c1a18" opacity="0.10"/>
    <rect x="254" y="66" width="5" height="2" fill="#1c1a18" opacity="0.08"/>
    <rect x="114" y="470" width="16" height="2" fill="#1c1a18" opacity="0.08"/>
    <rect x="163" y="494" width="12" height="1" fill="#1c1a18" opacity="0.06"/>
    <rect x="86" y="93" width="3" height="1" fill="#1c1a18" opacity="0.06"/>
    <rect x="316" y="450" width="19" height="1" fill="#1c1a18" opacity="0.04"/>
    <rect x="117" y="137" width="13" height="1" fill="#1c1a18" opacity="0.12"/>
    <rect x="157" y="434" width="16" height="1" fill="#1c1a18" opacity="0.10"/>
    <rect x="345" y="43" width="18" height="2" fill="#1c1a18" opacity="0.04"/>
    <rect x="339" y="180" width="20" height="2" fill="#1c1a18" opacity="0.14"/>
    <rect x="349" y="189" width="8" height="1" fill="#1c1a18" opacity="0.09"/>
    <rect x="203" y="306" width="9" height="1" fill="#1c1a18" opacity="0.08"/>
    <rect x="309" y="134" width="10" height="1" fill="#1c1a18" opacity="0.07"/>
    <rect x="120" y="400" width="8" height="1" fill="#1c1a18" opacity="0.13"/>
    <rect x="301" y="122" width="6" height="1" fill="#1c1a18" opacity="0.05"/>
    <rect x="446" y="84" width="18" height="2" fill="#1c1a18" opacity="0.05"/>
    <rect x="67" y="105" width="10" height="2" fill="#1c1a18" opacity="0.02"/>
    <rect x="431" y="255" width="10" height="1" fill="#1c1a18" opacity="0.08"/>
    <rect x="421" y="143" width="16" height="2" fill="#1c1a18" opacity="0.08"/>
    <rect x="287" y="374" width="18" height="2" fill="#1c1a18" opacity="0.05"/>
    <rect x="122" y="220" width="16" height="2" fill="#1c1a18" opacity="0.06"/>
    <rect x="100" y="204" width="20" height="2" fill="#1c1a18" opacity="0.05"/>
    <rect x="439" y="528" width="18" height="2" fill="#1c1a18" opacity="0.08"/>
    <rect x="290" y="240" width="14" height="2" fill="#1c1a18" opacity="0.12"/>
    <rect x="126" y="365" width="4" height="1" fill="#1c1a18" opacity="0.12"/>
    <rect x="159" y="422" width="21" height="1" fill="#1c1a18" opacity="0.13"/>
    <rect x="55" y="498" width="3" height="2" fill="#1c1a18" opacity="0.09"/>
    <rect x="231" y="560" width="13" height="2" fill="#1c1a18" opacity="0.12"/>
    <rect x="127" y="144" width="3" height="1" fill="#1c1a18" opacity="0.10"/>
    <rect x="47" y="303" width="12" height="1" fill="#1c1a18" opacity="0.08"/>
    <rect x="336" y="71" width="18" height="1" fill="#1c1a18" opacity="0.12"/>
    <rect x="54" y="479" width="16" height="2" fill="#1c1a18" opacity="0.04"/>
    <rect x="299" y="252" width="4" height="1" fill="#1c1a18" opacity="0.05"/>
    <rect x="367" y="144" width="2" height="2" fill="#1c1a18" opacity="0.05"/>
    <rect x="196" y="381" width="6" height="1" fill="#1c1a18" opacity="0.06"/>
    <rect x="243" y="147" width="17" height="1" fill="#1c1a18" opacity="0.13"/>
    <rect x="279" y="116" width="2" height="1" fill="#1c1a18" opacity="0.12"/>
    <rect x="59" y="395" width="7" height="1" fill="#1c1a18" opacity="0.04"/>
    <rect x="382" y="283" width="7" height="2" fill="#1c1a18" opacity="0.11"/>
    <rect x="438" y="495" width="2" height="2" fill="#1c1a18" opacity="0.07"/>
    <rect x="337" y="259" width="10" height="1" fill="#1c1a18" opacity="0.12"/>
    <rect x="71" y="41" width="4" height="1" fill="#1c1a18" opacity="0.03"/>
    <rect x="193" y="267" width="15" height="2" fill="#1c1a18" opacity="0.14"/>
    <rect x="240" y="137" width="4" height="1" fill="#1c1a18" opacity="0.07"/>
    <rect x="341" y="421" width="10" height="2" fill="#1c1a18" opacity="0.04"/>
    <rect x="213" y="148" width="13" height="2" fill="#1c1a18" opacity="0.12"/>
    <rect x="74" y="36" width="18" height="2" fill="#1c1a18" opacity="0.07"/>
    <rect x="313" y="293" width="8" height="2" fill="#1c1a18" opacity="0.07"/>
  </g>
  <g text-anchor="middle" font-family="Helvetica, Arial, sans-serif">
    <text font-size="11" letter-spacing="5" fill="#7e7568" x="240" y="256">ARTIFACT 06</text>
    <g transform="translate(240, 292)">
      <text font-size="26" font-weight="800" fill="#1c1a18" letter-spacing="-0.5" x="0" y="0">PORT AUTHORITY</text>
    </g>
    <text font-size="11" letter-spacing="3" fill="#7e7568" x="240" y="346">Photograph · 1963</text>
  </g>
  <text x="240" y="570" text-anchor="middle" font-family="Helvetica, Arial, sans-serif" font-size="9" letter-spacing="4" fill="#2d2a24" opacity="0.6">PLACEHOLDER</text>
</svg>
