<svg xmlns="http://www.w3.org/2000/svg" viewBox="0 0 220 160" width="220" height="160">
  <rect width="220" height="160" fill="#bfb7a8"/>
  <rect x="8" y="8" width="204" height="144" fill="none" stroke="#2d2a24" stroke-width="1"/>
  <g opacity="0.6">
    <rect x="116" y="74" width="4" height="1" fill="#1c1a18" opacity="0.12"/>
    <rect x="67" y="58" width="18" height="2" fill="#1c1a18" opacity="0.12"/>
    <rect x="76" y="125" width="20" height="2" fill="#1c1a18" opacity="0.14"/>
    <rect x="150" y="110" width="17" height="1" fill="#1c1a18" opacity="0.11"/>
    <rect x="104" y="80" width="11" height="1" fill="#1c1a18" opacity="0.12"/>
    <rect x="153" y="80" width="2" height="1" fill="#1c1a18" opacity="0.10"/>
    <rect x="53" y="69" width="12" height="2" fill="#1c1a18" opacity="0.06"/>
    <rect x="65" y="51" width="10" height="1" fill="#1c1a18" opacity="0.14"/>
    <rect x="116" y="42" width="12" height="1" fill="#1c1a18" opacity="0.04"/>
    <rect x="142" y="88" width="9" height="1" fill="#1c1a18" opacity="0.04"/>
    <rect x="68" y="94" width="2" height="2" fill="#1c1a18" opacity="0.03"/>
    <rect x="136" y="86" width="4" height="1" fill="#1c1a18" opacity="0.09"/>
    <rect x="56" y="87" width="8" height="1" fill="#1c1a18" opacity="0.13"/>
    <rect x="73" y="66" width="11" height="1" fill="#1c1a18" opacity="0.04"/>
    <rect x="92" y="111" width="7" height="1" fill="#1c1a18" opacity="0.03"/>
    <rect x="102" y="88" width="20" height="1" fill="#1c1a18" opacity="0.03"/>
    <rect x="98" y="51" width="21" height="2" fill="#1c1a18" opacity="0.11"/>
    <rect x="178" y="78" width="15" height="2" fill="#1c1a18" opacity="0.12"/>
    <rect x="157" y="126" width="7" height="1" fill="#1c1a18" opacity="0.08"/>
    <rect x="167" y="71" width="13" height="1" fill="#1c1a18" opacity="0.07"/>
    <rect x="150" y="45" width="21" height="2" fill="#1c1a18" opacity="0.02"/>
    <rect x="157" y="70" width="15" height="2" fill="#1c1a18" opacity="0.13"/>
    <rect x="94" y="103" width="10" height="1" fill="#1c1a18" opacity="0.12"/>
    <rect x="162" y="47" width="9" height="1" fill="#1c1a18" opacity="0.13"/>
    <rect x="184" y="50" width="14" height="1" fill="#1c1a18" opacity="0.13"/>
    <rect x="151" y="81" width="13" height="1" fill="#1c1a18" opacity="0.10"/>
    <rect x="132" y="63" width="16" height="1" fill="#1c1a18" opacity="0.04"/>
    <rect x="86" y="45" width="10" height="1" fill="#1c1a18" opacity="0.07"/>
    <rect x="174" y="42" width="14" height="2" fill="#1c1a18" opacity="0.09"/>
    <rect x="148" y="37" width="21" height="2" fill="#1c1a18" opacity="0.03"/>
    <rect x="158" y="111" width="20" height="2" fill="#1c1a18" opacity="0.11"/>
    <rect x="128" y="112" width="9" height="1" fill="#1c1a18" opacity="0.14"/>
    <rect x="128" y="116" width="9" height="2" fill="#1c1a18" opacity="0.03"/>
    <rect x="116" y="94" width="11" height="1" fill="#1c1a18" opacity="0.03"/>
    <rect x="32" y="109" width="19" height="2" fill="#1c1a18" opacity="0.04"/>
  </g>
  <g transform="translate(110, 80)" text-anchor="middle" font-family="Helvetica, Arial, sans-serif">
    <text font-size="10" letter-spacing="3" fill="#7e7568" y="-4">ALT 1</text>
    <text font-size="14" font-weight="700" fill="#1c1a18" y="14">07.1</text>
  </g>
</svg>
