<svg xmlns="http://www.w3.org/2000/svg" viewBox="0 0 480 600" width="480" height="600" aria-label="WELFARE OFFICE placeholder">
  <rect width="480" height="600" fill="#bfb7a8"/>
  <rect x="16" y="16" width="448" height="568" fill="none" stroke="#2d2a24" stroke-width="2"/>
  <g opacity="0.7">
    <rect x="377" y="482" width="15" height="2" fill="#1c1a18" opacity="0.10"/>
    <rect x="325" y="418" width="8" height="2" fill="#1c1a18" opacity="0.10"/>
    <rect x="66" y="80" width="18" height="1" fill="#1c1a18" opacity="0.09"/>
    <rect x="157" y="473" width="12" height="2" fill="#1c1a18" opacity="0.11"/>
    <rect x="359" y="365" width="21" height="2" fill="#1c1a18" opacity="0.12"/>
    <rect x="170" y="510" width="10" height="2" fill="#1c1a18" opacity="0.09"/>
    <rect x="90" y="329" width="16" height="1" fill="#1c1a18" opacity="0.05"/>
    <rect x="173" y="299" width="15" height="1" fill="#1c1a18" opacity="0.08"/>
    <rect x="244" y="82" width="13" height="1" fill="#1c1a18" opacity="0.14"/>
    <rect x="83" y="395" width="13" height="2" fill="#1c1a18" opacity="0.11"/>
    <rect x="429" y="444" width="17" height="1" fill="#1c1a18" opacity="0.12"/>
    <rect x="202" y="286" width="18" height="2" fill="#1c1a18" opacity="0.03"/>
    <rect x="201" y="253" width="11" height="1" fill="#1c1a18" opacity="0.06"/>
    <rect x="336" y="118" width="5" height="1" fill="#1c1a18" opacity="0.06"/>
    <rect x="273" y="249" width="16" height="2" fill="#1c1a18" opacity="0.09"/>
    <rect x="257" y="143" width="7" height="2" fill="#1c1a18" opacity="0.03"/>
    <rect x="385" y="235" width="15" height="1" fill="#1c1a18" opacity="0.11"/>
    <rect x="410" y="463" width="19" height="2" fill="#1c1a18" opacity="0.14"/>
    <rect x="70" y="424" width="17" height="1" fill="#1c1a18" opacity="0.12"/>
    <rect x="227" y="557" width="16" height="1" fill="#1c1a18" opacity="0.07"/>
    <rect x="332" y="363" width="16" height="2" fill="#1c1a18" opacity="0.02"/>
    <rect x="217" y="284" width="16" height="1" fill="#1c1a18" opacity="0.12"/>
    <rect x="445" y="356" width="10" height="1" fill="#1c1a18" opacity="0.05"/>
    <rect x="94" y="60" width="12" height="2" fill="#1c1a18" opacity="0.12"/>
    <rect x="323" y="54" width="21" height="2" fill="#1c1a18" opacity="0.11"/>
    <rect x="350" y="171" width="21" height="2" fill="#1c1a18" opacity="0.10"/>
    <rect x="84" y="509" width="9" height="1" fill="#1c1a18" opacity="0.02"/>
    <rect x="408" y="422" width="9" height="1" fill="#1c1a18" opacity="0.06"/>
    <rect x="103" y="166" width="21" height="1" fill="#1c1a18" opacity="0.05"/>
    <rect x="339" y="342" width="11" height="1" fill="#1c1a18" opacity="0.03"/>
    <rect x="410" y="386" width="18" height="2" fill="#1c1a18" opacity="0.03"/>
    <rect x="317" y="107" width="11" height="1" fill="#1c1a18" opacity="0.07"/>
    <rect x="283" y="205" width="6" height="2" fill="#1c1a18" opacity="0.05"/>
    <rect x="87" y="273" width="20" height="2" fill="#1c1a18" opacity="0.10"/>
    <rect x="63" y="340" width="9" height="2" fill="#1c1a18" opacity="0.04"/>
    <rect x="295" y="475" width="19" height="2" fill="#1c1a18" opacity="0.02"/>
    <rect x="384" y="328" width="10" height="2" fill="#1c1a18" opacity="0.11"/>
    <rect x="371" y="432" width="9" height="2" fill="#1c1a18" opacity="0.13"/>
    <rect x="187" y="404" width="2" height="1" fill="#1c1a18" opacity="0.02"/>
    <rect x="354" y="307" width="12" height="2" fill="#1c1a18" opacity="0.06"/>
    <rect x="68" y="128" width="2" height="2" fill="#1c1a18" opacity="0.11"/>
    <rect x="386" y="284" width="9" height="2" fill="#1c1a18" opacity="0.11"/>
    <rect x="223" y="532" width="10" height="1" fill="#1c1a18" opacity="0.03"/>
    <rect x="246" y="457" width="15" height="1" fill="#1c1a18" opacity="0.12"/>
    <rect x="407" y="557" width="10" height="2" fill="#1c1a18" opacity="0.02"/>
    <rect x="134" y="132" width="11" height="1" fill="#1c1a18" opacity="0.02"/>
    <rect x="129" y="563" width="12" height="1" fill="#1c1a18" opacity="0.03"/>
    <rect x="167" y="36" width="4" height="2" fill="#1c1a18" opacity="0.10"/>
    <rect x="143" y="323" width="6" height="1" fill="#1c1a18" opacity="0.07"/>
    <rect x="231" y="267" width="5" height="2" fill="#1c1a18" opacity="0.11"/>
    <rect x="326" y="57" width="7" height="2" fill="#1c1a18" opacity="0.08"/>
    <rect x="312" y="443" width="3" height="1" fill="#1c1a18" opacity="0.10"/>
    <rect x="41" y="419" width="10" height="1" fill="#1c1a18" opacity="0.07"/>
    <rect x="294" y="121" width="3" height="1" fill="#1c1a18" opacity="0.06"/>
    <rect x="139" y="140" width="17" height="2" fill="#1c1a18" opacity="0.06"/>
    <rect x="66" y="227" width="6" height="1" fill="#1c1a18" opacity="0.05"/>
    <rect x="375" y="406" width="19" height="1" fill="#1c1a18" opacity="0.11"/>
    <rect x="346" y="435" width="6" height="2" fill="#1c1a18" opacity="0.12"/>
    <rect x="110" y="161" width="4" height="1" fill="#1c1a18" opacity="0.11"/>
    <rect x="231" y="210" width="7" height="2" fill="#1c1a18" opacity="0.14"/>
    <rect x="98" y="270" width="2" height="1" fill="#1c1a18" opacity="0.10"/>
    <rect x="201" y="229" width="13" height="1" fill="#1c1a18" opacity="0.14"/>
    <rect x="188" y="64" width="21" height="1" fill="#1c1a18" opacity="0.04"/>
    <rect x="221" y="95" width="2" height="2" fill="#1c1a18" opacity="0.08"/>
    <rect x="185" y="333" width="3" height="2" fill="#1c1a18" opacity="0.07"/>
    <rect x="91" y="185" width="17" height="2" fill="#1c1a18" opacity="0.05"/>
    <rect x="156" y="381" width="6" height="1" fill="#1c1a18" opacity="0.12"/>
    <rect x="82" y="57" width="4" height="2" fill="#1c1a18" opacity="0.13"/>
    <rect x="355" y="179" width="4" height="2" fill="#1c1a18" opacity="0.05"/>
    <rect x="387" y="182" width="3" height="2" fill="#1c1a18" opacity="0.13"/>
    <rect x="338" y="424" width="12" height="2" fill="#1c1a18" opacity="0.03"/>
    <rect x="353" y="424" width="18" height="2" fill="#1c1a18" opacity="0.08"/>
    <rect x="316" y="189" width="10" height="2" fill="#1c1a18" opacity="0.06"/>
    <rect x="162" y="96" width="17" height="2" fill="#1c1a18" opacity="0.13"/>
    <rect x="336" y="211" width="21" height="2" fill="#1c1a18" opacity="0.12"/>
    <rect x="106" y="427" width="16" height="2" fill="#1c1a18" opacity="0.14"/>
    <rect x="234" y="405" width="14" height="2" fill="#1c1a18" opacity="0.11"/>
    <rect x="324" y="514" width="21" height="2" fill="#1c1a18" opacity="0.13"/>
    <rect x="83" y="409" width="16" height="2" fill="#1c1a18" opacity="0.05"/>
    <rect x="424" y="279" width="11" height="1" fill="#1c1a18" opacity="0.11"/>
    <rect x="207" y="159" width="4" height="1" fill="#1c1a18" opacity="0.03"/>
    <rect x="287" y="480" width="19" height="2" fill="#1c1a18" opacity="0.07"/>
    <rect x="331" y="285" width="2" height="2" fill="#1c1a18" opacity="0.03"/>
    <rect x="127" y="459" width="18" height="2" fill="#1c1a18" opacity="0.10"/>
    <rect x="116" y="102" width="11" height="1" fill="#1c1a18" opacity="0.10"/>
    <rect x="134" y="289" width="18" height="2" fill="#1c1a18" opacity="0.04"/>
    <rect x="63" y="467" width="15" height="1" fill="#1c1a18" opacity="0.03"/>
    <rect x="48" y="313" width="7" height="2" fill="#1c1a18" opacity="0.11"/>
    <rect x="136" y="35" width="6" height="2" fill="#1c1a18" opacity="0.05"/>
    <rect x="103" y="545" width="10" height="2" fill="#1c1a18" opacity="0.12"/>
    <rect x="269" y="409" width="18" height="1" fill="#1c1a18" opacity="0.03"/>
    <rect x="416" y="521" width="12" height="2" fill="#1c1a18" opacity="0.06"/>
    <rect x="310" y="170" width="10" height="2" fill="#1c1a18" opacity="0.11"/>
    <rect x="328" y="161" width="20" height="2" fill="#1c1a18" opacity="0.12"/>
    <rect x="423" y="284" width="5" height="1" fill="#1c1a18" opacity="0.09"/>
    <rect x="241" y="551" width="10" height="2" fill="#1c1a18" opacity="0.09"/>
    <rect x="104" y="567" width="11" height="2" fill="#1c1a18" opacity="0.03"/>
    <rect x="344" y="70" width="3" height="2" fill="#1c1a18" opacity="0.06"/>
    <rect x="35" y="289" width="5" height="2" fill="#1c1a18" opacity="0.11"/>
    <rect x="90" y="411" width="4" height="2" fill="#1c1a18" opacity="0.05"/>
  </g>
  <g text-anchor="middle" font-family="Helvetica, Arial, sans-serif">
    <text font-size="11" letter-spacing="5" fill="#7e7568" x="240" y="256">ARTIFACT 07</text>
    <g transform="translate(240, 292)">
      <text font-size="26" font-weight="800" fill="#1c1a18" letter-spacing="-0.5" x="0" y="0">WELFARE OFFICE</text>
    </g>
    <text font-size="11" letter-spacing="3" fill="#7e7568" x="240" y="346">NYC DSS · 1974</text>
  </g>
  <text x="240" y="570" text-anchor="middle" font-family="Helvetica, Arial, sans-serif" font-size="9" letter-spacing="4" fill="#2d2a24" opacity="0.6">PLACEHOLDER</text>
</svg>
