<svg xmlns="http://www.w3.org/2000/svg" viewBox="0 0 480 600" width="480" height="600" aria-label="STUDIO 54 ROPE placeholder">
  <rect width="480" height="600" fill="#bfb7a8"/>
  <rect x="16" y="16" width="448" height="568" fill="none" stroke="#2d2a24" stroke-width="2"/>
  <g opacity="0.7">
    <rect x="358" y="285" width="4" height="1" fill="#1c1a18" opacity="0.08"/>
    <rect x="81" y="57" width="10" height="1" fill="#1c1a18" opacity="0.10"/>
    <rect x="448" y="72" width="9" height="2" fill="#1c1a18" opacity="0.10"/>
    <rect x="329" y="261" width="18" height="1" fill="#1c1a18" opacity="0.08"/>
    <rect x="313" y="451" width="18" height="1" fill="#1c1a18" opacity="0.04"/>
    <rect x="281" y="365" width="9" height="1" fill="#1c1a18" opacity="0.03"/>
    <rect x="199" y="38" width="14" height="2" fill="#1c1a18" opacity="0.02"/>
    <rect x="409" y="220" width="21" height="1" fill="#1c1a18" opacity="0.09"/>
    <rect x="419" y="144" width="5" height="2" fill="#1c1a18" opacity="0.08"/>
    <rect x="87" y="444" width="5" height="1" fill="#1c1a18" opacity="0.05"/>
    <rect x="368" y="184" width="14" height="1" fill="#1c1a18" opacity="0.07"/>
    <rect x="412" y="43" width="9" height="1" fill="#1c1a18" opacity="0.03"/>
    <rect x="212" y="525" width="3" height="2" fill="#1c1a18" opacity="0.11"/>
    <rect x="200" y="451" width="10" height="1" fill="#1c1a18" opacity="0.09"/>
    <rect x="237" y="242" width="10" height="1" fill="#1c1a18" opacity="0.07"/>
    <rect x="282" y="535" width="19" height="1" fill="#1c1a18" opacity="0.03"/>
    <rect x="320" y="245" width="21" height="2" fill="#1c1a18" opacity="0.04"/>
    <rect x="97" y="358" width="4" height="2" fill="#1c1a18" opacity="0.12"/>
    <rect x="277" y="207" width="20" height="1" fill="#1c1a18" opacity="0.09"/>
    <rect x="217" y="409" width="5" height="1" fill="#1c1a18" opacity="0.07"/>
    <rect x="375" y="387" width="20" height="1" fill="#1c1a18" opacity="0.05"/>
    <rect x="233" y="406" width="20" height="2" fill="#1c1a18" opacity="0.14"/>
    <rect x="286" y="217" width="4" height="1" fill="#1c1a18" opacity="0.13"/>
    <rect x="311" y="445" width="18" height="2" fill="#1c1a18" opacity="0.10"/>
    <rect x="371" y="436" width="4" height="2" fill="#1c1a18" opacity="0.04"/>
    <rect x="121" y="366" width="14" height="1" fill="#1c1a18" opacity="0.05"/>
    <rect x="109" y="416" width="2" height="1" fill="#1c1a18" opacity="0.08"/>
    <rect x="346" y="328" width="10" height="1" fill="#1c1a18" opacity="0.10"/>
    <rect x="193" y="130" width="4" height="1" fill="#1c1a18" opacity="0.12"/>
    <rect x="181" y="500" width="5" height="1" fill="#1c1a18" opacity="0.07"/>
    <rect x="218" y="365" width="13" height="2" fill="#1c1a18" opacity="0.02"/>
    <rect x="402" y="406" width="6" height="1" fill="#1c1a18" opacity="0.05"/>
    <rect x="182" y="422" width="5" height="2" fill="#1c1a18" opacity="0.09"/>
    <rect x="66" y="221" width="15" height="1" fill="#1c1a18" opacity="0.06"/>
    <rect x="213" y="521" width="16" height="2" fill="#1c1a18" opacity="0.04"/>
    <rect x="90" y="135" width="9" height="1" fill="#1c1a18" opacity="0.11"/>
    <rect x="119" y="521" width="5" height="1" fill="#1c1a18" opacity="0.06"/>
    <rect x="313" y="156" width="12" height="1" fill="#1c1a18" opacity="0.08"/>
    <rect x="123" y="532" width="18" height="2" fill="#1c1a18" opacity="0.08"/>
    <rect x="292" y="397" width="11" height="2" fill="#1c1a18" opacity="0.14"/>
    <rect x="354" y="273" width="19" height="1" fill="#1c1a18" opacity="0.08"/>
    <rect x="171" y="534" width="14" height="1" fill="#1c1a18" opacity="0.04"/>
    <rect x="264" y="414" width="11" height="1" fill="#1c1a18" opacity="0.03"/>
    <rect x="83" y="331" width="6" height="1" fill="#1c1a18" opacity="0.05"/>
    <rect x="218" y="365" width="3" height="2" fill="#1c1a18" opacity="0.09"/>
    <rect x="327" y="62" width="20" height="2" fill="#1c1a18" opacity="0.10"/>
    <rect x="262" y="397" width="15" height="2" fill="#1c1a18" opacity="0.12"/>
    <rect x="370" y="463" width="10" height="1" fill="#1c1a18" opacity="0.08"/>
    <rect x="92" y="134" width="17" height="1" fill="#1c1a18" opacity="0.08"/>
    <rect x="103" y="203" width="14" height="1" fill="#1c1a18" opacity="0.14"/>
    <rect x="245" y="501" width="8" height="1" fill="#1c1a18" opacity="0.12"/>
    <rect x="223" y="447" width="6" height="2" fill="#1c1a18" opacity="0.03"/>
    <rect x="103" y="171" width="8" height="2" fill="#1c1a18" opacity="0.13"/>
    <rect x="412" y="69" width="18" height="1" fill="#1c1a18" opacity="0.05"/>
    <rect x="104" y="126" width="10" height="1" fill="#1c1a18" opacity="0.13"/>
    <rect x="418" y="466" width="16" height="1" fill="#1c1a18" opacity="0.05"/>
    <rect x="261" y="459" width="15" height="2" fill="#1c1a18" opacity="0.08"/>
    <rect x="109" y="48" width="16" height="2" fill="#1c1a18" opacity="0.03"/>
    <rect x="357" y="425" width="6" height="1" fill="#1c1a18" opacity="0.06"/>
    <rect x="237" y="275" width="10" height="1" fill="#1c1a18" opacity="0.03"/>
    <rect x="241" y="33" width="10" height="1" fill="#1c1a18" opacity="0.06"/>
    <rect x="83" y="221" width="20" height="1" fill="#1c1a18" opacity="0.05"/>
    <rect x="292" y="438" width="11" height="2" fill="#1c1a18" opacity="0.09"/>
    <rect x="323" y="43" width="20" height="1" fill="#1c1a18" opacity="0.14"/>
    <rect x="69" y="411" width="10" height="2" fill="#1c1a18" opacity="0.12"/>
    <rect x="274" y="176" width="20" height="1" fill="#1c1a18" opacity="0.08"/>
    <rect x="442" y="394" width="14" height="2" fill="#1c1a18" opacity="0.08"/>
    <rect x="207" y="488" width="13" height="2" fill="#1c1a18" opacity="0.09"/>
    <rect x="369" y="227" width="9" height="2" fill="#1c1a18" opacity="0.08"/>
    <rect x="192" y="40" width="10" height="2" fill="#1c1a18" opacity="0.11"/>
    <rect x="151" y="146" width="4" height="1" fill="#1c1a18" opacity="0.08"/>
    <rect x="406" y="423" width="6" height="1" fill="#1c1a18" opacity="0.12"/>
    <rect x="229" y="497" width="19" height="1" fill="#1c1a18" opacity="0.08"/>
    <rect x="334" y="162" width="19" height="2" fill="#1c1a18" opacity="0.08"/>
    <rect x="392" y="347" width="10" height="1" fill="#1c1a18" opacity="0.07"/>
    <rect x="200" y="209" width="19" height="2" fill="#1c1a18" opacity="0.03"/>
    <rect x="409" y="110" width="19" height="1" fill="#1c1a18" opacity="0.14"/>
    <rect x="251" y="548" width="15" height="2" fill="#1c1a18" opacity="0.11"/>
    <rect x="246" y="238" width="9" height="2" fill="#1c1a18" opacity="0.02"/>
    <rect x="225" y="340" width="6" height="1" fill="#1c1a18" opacity="0.11"/>
    <rect x="283" y="300" width="17" height="1" fill="#1c1a18" opacity="0.12"/>
    <rect x="326" y="260" width="16" height="2" fill="#1c1a18" opacity="0.10"/>
    <rect x="183" y="38" width="5" height="1" fill="#1c1a18" opacity="0.12"/>
    <rect x="314" y="215" width="14" height="1" fill="#1c1a18" opacity="0.05"/>
    <rect x="71" y="456" width="21" height="1" fill="#1c1a18" opacity="0.07"/>
    <rect x="32" y="494" width="14" height="1" fill="#1c1a18" opacity="0.04"/>
    <rect x="175" y="437" width="5" height="1" fill="#1c1a18" opacity="0.03"/>
    <rect x="321" y="275" width="5" height="2" fill="#1c1a18" opacity="0.10"/>
    <rect x="233" y="287" width="2" height="2" fill="#1c1a18" opacity="0.10"/>
    <rect x="162" y="232" width="9" height="1" fill="#1c1a18" opacity="0.09"/>
    <rect x="405" y="139" width="13" height="1" fill="#1c1a18" opacity="0.11"/>
    <rect x="377" y="432" width="6" height="1" fill="#1c1a18" opacity="0.05"/>
    <rect x="151" y="83" width="4" height="1" fill="#1c1a18" opacity="0.12"/>
    <rect x="266" y="482" width="5" height="2" fill="#1c1a18" opacity="0.07"/>
    <rect x="37" y="63" width="2" height="1" fill="#1c1a18" opacity="0.07"/>
    <rect x="179" y="104" width="7" height="2" fill="#1c1a18" opacity="0.10"/>
    <rect x="251" y="225" width="16" height="2" fill="#1c1a18" opacity="0.09"/>
    <rect x="139" y="244" width="3" height="2" fill="#1c1a18" opacity="0.05"/>
    <rect x="86" y="180" width="17" height="1" fill="#1c1a18" opacity="0.07"/>
    <rect x="54" y="230" width="21" height="2" fill="#1c1a18" opacity="0.08"/>
  </g>
  <g text-anchor="middle" font-family="Helvetica, Arial, sans-serif">
    <text font-size="11" letter-spacing="5" fill="#7e7568" x="240" y="256">ARTIFACT 08</text>
    <g transform="translate(240, 292)">
      <text font-size="26" font-weight="800" fill="#1c1a18" letter-spacing="-0.5" x="0" y="0">STUDIO 54 ROPE</text>
    </g>
    <text font-size="11" letter-spacing="3" fill="#7e7568" x="240" y="346">Photograph · 1978</text>
  </g>
  <text x="240" y="570" text-anchor="middle" font-family="Helvetica, Arial, sans-serif" font-size="9" letter-spacing="4" fill="#2d2a24" opacity="0.6">PLACEHOLDER</text>
</svg>
