<svg xmlns="http://www.w3.org/2000/svg" viewBox="0 0 480 600" width="480" height="600" aria-label="HERALD SQUARE DMV placeholder">
  <rect width="480" height="600" fill="#bfb7a8"/>
  <rect x="16" y="16" width="448" height="568" fill="none" stroke="#2d2a24" stroke-width="2"/>
  <g opacity="0.7">
    <rect x="283" y="559" width="7" height="1" fill="#1c1a18" opacity="0.05"/>
    <rect x="409" y="76" width="12" height="2" fill="#1c1a18" opacity="0.06"/>
    <rect x="106" y="114" width="5" height="2" fill="#1c1a18" opacity="0.06"/>
    <rect x="414" y="53" width="2" height="1" fill="#1c1a18" opacity="0.03"/>
    <rect x="121" y="552" width="13" height="2" fill="#1c1a18" opacity="0.12"/>
    <rect x="395" y="263" width="18" height="2" fill="#1c1a18" opacity="0.07"/>
    <rect x="144" y="297" width="17" height="1" fill="#1c1a18" opacity="0.03"/>
    <rect x="431" y="364" width="14" height="2" fill="#1c1a18" opacity="0.04"/>
    <rect x="417" y="424" width="6" height="2" fill="#1c1a18" opacity="0.03"/>
    <rect x="194" y="457" width="18" height="2" fill="#1c1a18" opacity="0.12"/>
    <rect x="303" y="87" width="21" height="1" fill="#1c1a18" opacity="0.09"/>
    <rect x="208" y="474" width="19" height="1" fill="#1c1a18" opacity="0.13"/>
    <rect x="33" y="145" width="10" height="1" fill="#1c1a18" opacity="0.09"/>
    <rect x="369" y="156" width="8" height="1" fill="#1c1a18" opacity="0.11"/>
    <rect x="433" y="239" width="21" height="2" fill="#1c1a18" opacity="0.03"/>
    <rect x="294" y="427" width="21" height="2" fill="#1c1a18" opacity="0.09"/>
    <rect x="159" y="151" width="5" height="1" fill="#1c1a18" opacity="0.12"/>
    <rect x="435" y="61" width="16" height="2" fill="#1c1a18" opacity="0.06"/>
    <rect x="327" y="266" width="15" height="1" fill="#1c1a18" opacity="0.14"/>
    <rect x="302" y="283" width="7" height="1" fill="#1c1a18" opacity="0.08"/>
    <rect x="258" y="511" width="13" height="1" fill="#1c1a18" opacity="0.08"/>
    <rect x="260" y="228" width="2" height="2" fill="#1c1a18" opacity="0.12"/>
    <rect x="268" y="443" width="4" height="2" fill="#1c1a18" opacity="0.14"/>
    <rect x="373" y="546" width="10" height="1" fill="#1c1a18" opacity="0.02"/>
    <rect x="130" y="542" width="17" height="1" fill="#1c1a18" opacity="0.06"/>
    <rect x="57" y="466" width="16" height="1" fill="#1c1a18" opacity="0.11"/>
    <rect x="181" y="50" width="3" height="1" fill="#1c1a18" opacity="0.07"/>
    <rect x="173" y="277" width="10" height="2" fill="#1c1a18" opacity="0.13"/>
    <rect x="243" y="432" width="8" height="1" fill="#1c1a18" opacity="0.13"/>
    <rect x="178" y="156" width="7" height="2" fill="#1c1a18" opacity="0.10"/>
    <rect x="333" y="43" width="15" height="2" fill="#1c1a18" opacity="0.06"/>
    <rect x="106" y="347" width="2" height="1" fill="#1c1a18" opacity="0.11"/>
    <rect x="174" y="73" width="10" height="2" fill="#1c1a18" opacity="0.12"/>
    <rect x="164" y="492" width="20" height="2" fill="#1c1a18" opacity="0.06"/>
    <rect x="116" y="302" width="14" height="2" fill="#1c1a18" opacity="0.05"/>
    <rect x="198" y="516" width="2" height="1" fill="#1c1a18" opacity="0.09"/>
    <rect x="412" y="463" width="5" height="2" fill="#1c1a18" opacity="0.02"/>
    <rect x="438" y="555" width="6" height="1" fill="#1c1a18" opacity="0.03"/>
    <rect x="389" y="365" width="6" height="1" fill="#1c1a18" opacity="0.04"/>
    <rect x="190" y="30" width="7" height="1" fill="#1c1a18" opacity="0.10"/>
    <rect x="350" y="387" width="14" height="1" fill="#1c1a18" opacity="0.04"/>
    <rect x="412" y="261" width="3" height="2" fill="#1c1a18" opacity="0.06"/>
    <rect x="259" y="121" width="16" height="1" fill="#1c1a18" opacity="0.11"/>
    <rect x="238" y="469" width="5" height="1" fill="#1c1a18" opacity="0.11"/>
    <rect x="58" y="519" width="2" height="2" fill="#1c1a18" opacity="0.13"/>
    <rect x="371" y="120" width="11" height="1" fill="#1c1a18" opacity="0.03"/>
    <rect x="296" y="391" width="3" height="1" fill="#1c1a18" opacity="0.02"/>
    <rect x="112" y="112" width="19" height="2" fill="#1c1a18" opacity="0.11"/>
    <rect x="33" y="531" width="17" height="2" fill="#1c1a18" opacity="0.09"/>
    <rect x="402" y="182" width="3" height="2" fill="#1c1a18" opacity="0.02"/>
    <rect x="414" y="341" width="17" height="1" fill="#1c1a18" opacity="0.14"/>
    <rect x="343" y="156" width="8" height="2" fill="#1c1a18" opacity="0.05"/>
    <rect x="286" y="556" width="12" height="2" fill="#1c1a18" opacity="0.12"/>
    <rect x="49" y="481" width="12" height="1" fill="#1c1a18" opacity="0.11"/>
    <rect x="220" y="139" width="13" height="1" fill="#1c1a18" opacity="0.10"/>
    <rect x="171" y="63" width="13" height="1" fill="#1c1a18" opacity="0.04"/>
    <rect x="427" y="163" width="7" height="2" fill="#1c1a18" opacity="0.12"/>
    <rect x="237" y="559" width="17" height="2" fill="#1c1a18" opacity="0.08"/>
    <rect x="128" y="140" width="4" height="1" fill="#1c1a18" opacity="0.10"/>
    <rect x="422" y="320" width="20" height="2" fill="#1c1a18" opacity="0.11"/>
    <rect x="406" y="158" width="12" height="1" fill="#1c1a18" opacity="0.06"/>
    <rect x="383" y="182" width="14" height="1" fill="#1c1a18" opacity="0.13"/>
    <rect x="110" y="475" width="19" height="1" fill="#1c1a18" opacity="0.11"/>
    <rect x="183" y="312" width="20" height="2" fill="#1c1a18" opacity="0.11"/>
    <rect x="336" y="349" width="7" height="1" fill="#1c1a18" opacity="0.09"/>
    <rect x="206" y="122" width="19" height="1" fill="#1c1a18" opacity="0.09"/>
    <rect x="281" y="167" width="15" height="2" fill="#1c1a18" opacity="0.08"/>
    <rect x="408" y="95" width="10" height="1" fill="#1c1a18" opacity="0.05"/>
    <rect x="279" y="131" width="6" height="1" fill="#1c1a18" opacity="0.09"/>
    <rect x="94" y="231" width="14" height="1" fill="#1c1a18" opacity="0.12"/>
    <rect x="192" y="544" width="6" height="2" fill="#1c1a18" opacity="0.07"/>
    <rect x="414" y="290" width="14" height="1" fill="#1c1a18" opacity="0.02"/>
    <rect x="401" y="247" width="11" height="2" fill="#1c1a18" opacity="0.03"/>
    <rect x="103" y="149" width="16" height="2" fill="#1c1a18" opacity="0.08"/>
    <rect x="319" y="401" width="4" height="2" fill="#1c1a18" opacity="0.11"/>
    <rect x="54" y="517" width="9" height="1" fill="#1c1a18" opacity="0.03"/>
    <rect x="138" y="132" width="2" height="1" fill="#1c1a18" opacity="0.14"/>
    <rect x="148" y="420" width="10" height="2" fill="#1c1a18" opacity="0.06"/>
    <rect x="71" y="457" width="13" height="1" fill="#1c1a18" opacity="0.08"/>
    <rect x="289" y="78" width="19" height="2" fill="#1c1a18" opacity="0.09"/>
    <rect x="200" y="218" width="11" height="1" fill="#1c1a18" opacity="0.05"/>
    <rect x="356" y="355" width="15" height="1" fill="#1c1a18" opacity="0.02"/>
    <rect x="181" y="332" width="21" height="2" fill="#1c1a18" opacity="0.08"/>
    <rect x="303" y="97" width="13" height="2" fill="#1c1a18" opacity="0.13"/>
    <rect x="78" y="402" width="17" height="2" fill="#1c1a18" opacity="0.03"/>
    <rect x="83" y="326" width="15" height="2" fill="#1c1a18" opacity="0.06"/>
    <rect x="318" y="423" width="19" height="1" fill="#1c1a18" opacity="0.10"/>
    <rect x="81" y="406" width="18" height="1" fill="#1c1a18" opacity="0.09"/>
    <rect x="182" y="207" width="10" height="2" fill="#1c1a18" opacity="0.10"/>
    <rect x="337" y="505" width="2" height="1" fill="#1c1a18" opacity="0.12"/>
    <rect x="323" y="255" width="13" height="1" fill="#1c1a18" opacity="0.04"/>
    <rect x="248" y="389" width="6" height="2" fill="#1c1a18" opacity="0.03"/>
    <rect x="322" y="281" width="11" height="2" fill="#1c1a18" opacity="0.10"/>
    <rect x="400" y="357" width="13" height="2" fill="#1c1a18" opacity="0.09"/>
    <rect x="134" y="184" width="17" height="1" fill="#1c1a18" opacity="0.11"/>
    <rect x="117" y="183" width="19" height="2" fill="#1c1a18" opacity="0.14"/>
    <rect x="76" y="326" width="7" height="1" fill="#1c1a18" opacity="0.12"/>
    <rect x="308" y="246" width="6" height="2" fill="#1c1a18" opacity="0.04"/>
    <rect x="441" y="340" width="6" height="2" fill="#1c1a18" opacity="0.09"/>
    <rect x="230" y="361" width="10" height="1" fill="#1c1a18" opacity="0.08"/>
  </g>
  <g text-anchor="middle" font-family="Helvetica, Arial, sans-serif">
    <text font-size="11" letter-spacing="5" fill="#7e7568" x="240" y="256">ARTIFACT 09</text>
    <g transform="translate(240, 292)">
      <text font-size="26" font-weight="800" fill="#1c1a18" letter-spacing="-0.5" x="0" y="0">HERALD SQUARE DMV</text>
    </g>
    <text font-size="11" letter-spacing="3" fill="#7e7568" x="240" y="346">Photograph · 1989</text>
  </g>
  <text x="240" y="570" text-anchor="middle" font-family="Helvetica, Arial, sans-serif" font-size="9" letter-spacing="4" fill="#2d2a24" opacity="0.6">PLACEHOLDER</text>
</svg>
