<svg xmlns="http://www.w3.org/2000/svg" viewBox="0 0 220 160" width="220" height="160">
  <rect width="220" height="160" fill="#bfb7a8"/>
  <rect x="8" y="8" width="204" height="144" fill="none" stroke="#2d2a24" stroke-width="1"/>
  <g opacity="0.6">
    <rect x="704" y="446" width="9" height="2" fill="#1c1a18" opacity="0.03"/>
    <rect x="771" y="102" width="20" height="1" fill="#1c1a18" opacity="0.13"/>
    <rect x="187" y="325" width="7" height="2" fill="#1c1a18" opacity="0.10"/>
    <rect x="490" y="153" width="9" height="2" fill="#1c1a18" opacity="0.06"/>
    <rect x="481" y="530" width="19" height="1" fill="#1c1a18" opacity="0.08"/>
    <rect x="877" y="479" width="2" height="2" fill="#1c1a18" opacity="0.09"/>
    <rect x="620" y="264" width="6" height="1" fill="#1c1a18" opacity="0.06"/>
    <rect x="820" y="109" width="20" height="1" fill="#1c1a18" opacity="0.06"/>
    <rect x="706" y="169" width="5" height="1" fill="#1c1a18" opacity="0.07"/>
    <rect x="736" y="490" width="17" height="2" fill="#1c1a18" opacity="0.03"/>
    <rect x="161" y="446" width="15" height="1" fill="#1c1a18" opacity="0.14"/>
    <rect x="503" y="59" width="9" height="2" fill="#1c1a18" opacity="0.05"/>
    <rect x="217" y="123" width="15" height="1" fill="#1c1a18" opacity="0.07"/>
    <rect x="78" y="601" width="9" height="2" fill="#1c1a18" opacity="0.06"/>
    <rect x="390" y="610" width="2" height="2" fill="#1c1a18" opacity="0.11"/>
    <rect x="791" y="97" width="13" height="1" fill="#1c1a18" opacity="0.02"/>
    <rect x="164" y="609" width="9" height="2" fill="#1c1a18" opacity="0.04"/>
    <rect x="697" y="190" width="5" height="1" fill="#1c1a18" opacity="0.10"/>
    <rect x="799" y="420" width="12" height="1" fill="#1c1a18" opacity="0.09"/>
    <rect x="589" y="392" width="14" height="2" fill="#1c1a18" opacity="0.12"/>
    <rect x="424" y="217" width="20" height="2" fill="#1c1a18" opacity="0.07"/>
    <rect x="727" y="137" width="8" height="1" fill="#1c1a18" opacity="0.04"/>
    <rect x="408" y="532" width="8" height="2" fill="#1c1a18" opacity="0.13"/>
    <rect x="888" y="572" width="3" height="2" fill="#1c1a18" opacity="0.06"/>
    <rect x="712" y="283" width="7" height="1" fill="#1c1a18" opacity="0.04"/>
    <rect x="913" y="73" width="17" height="2" fill="#1c1a18" opacity="0.04"/>
    <rect x="524" y="452" width="12" height="2" fill="#1c1a18" opacity="0.09"/>
    <rect x="916" y="263" width="16" height="1" fill="#1c1a18" opacity="0.14"/>
    <rect x="363" y="182" width="10" height="1" fill="#1c1a18" opacity="0.09"/>
    <rect x="410" y="551" width="13" height="1" fill="#1c1a18" opacity="0.09"/>
    <rect x="848" y="260" width="4" height="1" fill="#1c1a18" opacity="0.10"/>
    <rect x="36" y="84" width="11" height="1" fill="#1c1a18" opacity="0.04"/>
    <rect x="459" y="55" width="17" height="2" fill="#1c1a18" opacity="0.07"/>
    <rect x="777" y="335" width="11" height="2" fill="#1c1a18" opacity="0.08"/>
    <rect x="212" y="170" width="8" height="2" fill="#1c1a18" opacity="0.13"/>
  </g>
  <g transform="translate(110, 80)" text-anchor="middle" font-family="Helvetica, Arial, sans-serif">
    <text font-size="10" letter-spacing="3" fill="#7e7568" y="-4">ALT 1</text>
    <text font-size="14" font-weight="700" fill="#1c1a18" y="14">10.1</text>
  </g>
</svg>
